<svg id="Group_19" data-name="Group 19" xmlns="http://www.w3.org/2000/svg" xmlns:xlink="http://www.w3.org/1999/xlink" width="129.618" height="41.53" viewBox="0 0 129.618 41.53">
  <defs>
    <clipPath id="clip-path">
      <rect id="Rectangle_16" data-name="Rectangle 16" width="129.618" height="41.53" fill="#271f1e"/>
    </clipPath>
  </defs>
  <g id="Group_18" data-name="Group 18" clip-path="url(#clip-path)">
    <path id="Path_81" data-name="Path 81" d="M184.064,55.054c.266.985,1.184,1.275,1.91,1.744,4.009,2.593,8.033,5.161,12.081,7.757-.635.8-1.194.258-1.682.1-11.723-3.715-23.431-7.48-35.168-11.153a2.084,2.084,0,0,1-1.738-2.463c.1-3.6.034-7.2.034-11.21,3.868,2.475,7.42,4.745,10.968,7.019q5.879,3.767,11.754,7.54c.569.364,1.1.846,1.866.692Z" transform="translate(-93.881 -23.451)" fill="#271f1e"/>
    <path id="Path_82" data-name="Path 82" d="M233.711,31.4q11.678-7.432,23.359-14.862c.435-.277.9-.513,1.639-.936,0,4.243,0,8.183,0,12.123,0,1.057-.843,1.115-1.534,1.334q-13.568,4.3-27.14,8.58c-2.862.907-5.715,1.845-8.569,2.778a3.947,3.947,0,0,1-2.191.371l.025.03,14.434-9.445Z" transform="translate(-129.095 -9.188)" fill="#271f1e"/>
    <path id="Path_83" data-name="Path 83" d="M212.778,31.421H183.83c-.4-.784.072-1.021.314-1.279q6.375-6.816,12.785-13.6c.525-.556.924-1.416,1.9-.361,4.456,4.819,8.975,9.581,13.457,14.376a3.779,3.779,0,0,1,.466.892l.027-.027" transform="translate(-108.135 -9.232)" fill="#271f1e"/>
    <path id="Path_84" data-name="Path 84" d="M16.941,75.415c-.9-1.364-.564-2.849-.524-4.29a11.067,11.067,0,0,0-.026-2.447c-.311-1.624-1.068-2.647-2.9-2.448a2.652,2.652,0,0,0-2.562,2.894c-.052,2.037-.013,4.076-.013,6.157-1.092-.08-.92-.743-.925-1.217-.019-1.642.067-3.286.012-4.926-.057-1.67-.674-2.959-2.633-2.993-1.7-.029-2.837,1.065-2.946,3-.1,1.706-.022,3.421-.052,5.131-.007.362.141.831-.366,1.022-.5-.039-.513-.416-.512-.74.006-2.669.006-5.338.067-8.006.01-.462-.333-1.827.963-.644.456.415.869-.16,1.26-.356.706-.355,1.6-.666,2.167-.3a4.852,4.852,0,0,0,5.2.19c1.888-.855,3.906.853,4.154,3.085a23.93,23.93,0,0,1-.369,6.885" transform="translate(-2.058 -38.32)" fill="#271f1e"/>
    <path id="Path_85" data-name="Path 85" d="M49.908,65.294c0,3.463,0,6.567,0,9.671,0,.3-.275.694-.4.581-1.224-1.1-2.228.34-3.37.246a3.189,3.189,0,0,1-2.956-1.845c-1.218-2.737-.322-5.534-.295-8.318a3.569,3.569,0,0,1,.693,2.83,13.146,13.146,0,0,0,.058,4.072c.372,1.513,1.205,2.569,2.8,2.392a2.663,2.663,0,0,0,2.617-2.853c0-1.5.023-3.007.092-4.508a2.4,2.4,0,0,1,.759-2.267" transform="translate(-25.045 -38.44)" fill="#271f1e"/>
    <path id="Path_86" data-name="Path 86" d="M94.258,69.155c-.755-.313-.5-.906-.7-1.309A2.77,2.77,0,0,0,90.8,66.1a2.658,2.658,0,0,0-2.466,2.123,8.752,8.752,0,0,0-.136,4.246,2.845,2.845,0,0,0,3,2.5,2.626,2.626,0,0,0,2.88-2.329c.064-.311-.023-.7.67-.882a2.706,2.706,0,0,1-1.075,3.263A3.917,3.917,0,0,1,87.7,73.8a7.6,7.6,0,0,1,.126-6.724,3.66,3.66,0,0,1,4.625-1.539,2.875,2.875,0,0,1,1.808,3.621" transform="translate(-51.204 -38.415)" fill="#271f1e"/>
    <path id="Path_87" data-name="Path 87" d="M216.883,59.955c.369,1.655-.044,2.442-1.915,2.3-1.509-.111-2.781.153-2.589-2.146.137-1.651.2-2.581,2.285-2.485,1.806.082,2.756.392,2.22,2.328" transform="translate(-125.021 -33.922)" fill="#271f1e"/>
    <path id="Path_88" data-name="Path 88" d="M66.379,76.3c0-3.372,0-6.466.008-9.561a.792.792,0,0,1,.19-.543c.239-.207.527.137.638.124,2.272-.274,4.668-1.153,6.179,1.562a.612.612,0,0,1,.04.394,1.207,1.207,0,0,1-.2.339c-.527.038-.65-.424-.9-.724a2.758,2.758,0,0,0-3.3-.926,2.668,2.668,0,0,0-1.792,2.715c-.035,1.571-.025,3.144-.074,4.715-.018.574.259,1.25-.791,1.905" transform="translate(-39.079 -38.837)" fill="#271f1e"/>
    <path id="Path_89" data-name="Path 89" d="M112.656,76.514V66.706l.42,0v9.8l-.42.006" transform="translate(-66.323 -39.271)" fill="#271f1e"/>
    <path id="Path_90" data-name="Path 90" d="M28.38,48.383c.094.8-.31,1.048-1.052,1.069-.921.026-1.116-.446-1.1-1.247.012-.774.346-1.041,1.094-1.066.94-.031,1.155.453,1.062,1.243" transform="translate(-15.438 -27.752)" fill="#271f1e"/>
    <path id="Path_91" data-name="Path 91" d="M36.365,48.15c.049.783-.123,1.261-.976,1.284-.887.023-1.2-.357-1.207-1.214-.006-.876.339-1.226,1.215-1.192.839.032,1.052.477.967,1.123" transform="translate(-20.124 -27.685)" fill="#271f1e"/>
    <path id="Path_92" data-name="Path 92" d="M30.555,5.929c1.507-1.418,3.391-1.334,5.18-1.854-.8,1.254-2.626,1.893-5.18,1.854" transform="translate(-17.988 -2.399)" fill="#271f1e"/>
    <path id="Path_93" data-name="Path 93" d="M67.878,48.591C66.584,50.156,64.692,49.9,63,50.267c1.374-1.323,3.171-1.358,4.875-1.676" transform="translate(-37.091 -28.607)" fill="#271f1e"/>
    <path id="Path_94" data-name="Path 94" d="M36.735,16.514c-.012-.82.324-1.888-1.182-1.832s-1.068,1.162-1.1,1.946c-.069,1.914-.008,3.834-.072,5.749-.053,1.588-1.258,1.461-2.38,1.548-1.319.1-1.405-.615-1.382-1.632.048-2.053,0-4.107.014-6.161,0-.8.035-1.5-1.131-1.457-1.073.038-.964.73-.968,1.407-.011,2.122-.112,4.251.014,6.365.1,1.685-.931,1.5-1.966,1.471s-2.241.315-2.106-1.546c.153-2.111.039-4.242.027-6.364,0-.6.12-1.266-.86-1.279-.9-.012-.966.526-.977,1.2-.023,1.436-.135,2.874-.092,4.308.115,3.857-.13,4.091-3.977,3.667-1.636-.18-2.473-.97-2.407-2.677a23.83,23.83,0,0,0-.035-3.9c-.118-.938.913-2.686-1.154-2.587-1.806.086-.905,1.626-.971,2.57-.114,1.636.034,3.3-.221,4.911-.314,1.978-2.026,1.634-3.437,1.7-1.661.079-1.162-1.156-1.2-2-.056-1.161-.009-2.327-.007-3.491.006-3.783.005-3.727-3.815-3.765-2.147-.022-4.105.3-4.778,2.62-.733,2.527-1.088,5.126.985,7.333a3.848,3.848,0,0,0,2.905,1.3c2.465,0,5.019.4,7.37-.114a14.7,14.7,0,0,1,6.886,0c2.2.52,4.63.111,6.958.109q3.287,0,6.573,0c.137,0,.274,0,.411,0,2.656-.062,3.892-1.18,4.045-3.854.105-1.843.054-3.7.029-5.544M6.566,23.783a3.659,3.659,0,0,1-2.966-.2c-1.274-.737-1.8-2.955-1.242-5.019.45-1.656,1.547-2.2,3.209-2.15,1.127.036,1.639.325,1.507,1.516a20.573,20.573,0,0,0-.015,2.242h.008A12.886,12.886,0,0,1,7.053,21.8c-.088.688.436,1.694-.487,1.985" transform="translate(0 -8.632)" fill="#271f1e"/>
    <path id="Path_95" data-name="Path 95" d="M110.109,16.854c-.378-2.722-2.131-4.461-4.462-4.561-2.287-.1-4.04,1.542-4.558,4.385-.206,1.133-.1,2.329-.355,3.448-.3,1.332-1.006,2.485-2.641,2.322A2.188,2.188,0,0,1,95.924,19.8c.058-.747.01-1.5.01-2.255h.009q0-1.436,0-2.872c0-.695.06-1.363-.987-1.4-1.145-.042-1.15.639-1.146,1.45.012,2.461-.008,4.922,0,7.383,0,1.919.216,3.889-2,4.942-.585.278-.5.993-.29,1.475.265.608.88.264,1.271.143a3.874,3.874,0,0,0,2.837-3.185c.19-1.044.526-1.575,1.772-1.115a3.435,3.435,0,0,0,3.467-.691c.745-.633,1.192-.6,2.026-.037,2.794,1.894,5.961.684,7-2.524a9.419,9.419,0,0,0,.216-4.263m-4.819,5.689c-1.606-.116-2.292-1.341-2.3-4.1-.006-2.781.8-4.161,2.462-4.208,1.738-.049,2.7,1.49,2.677,4.262q-.042,4.255-2.841,4.049" transform="translate(-53.785 -7.235)" fill="#271f1e"/>
    <path id="Path_96" data-name="Path 96" d="M126.537,67.141a3,3,0,0,0-5.281-.017c-.466,1.033-.238,1.948,1.118,3.006-.118-1.563-1.03-2.946.678-3.562a2.014,2.014,0,0,1,2.286.389,3.009,3.009,0,0,1,.748,2.661c-.166.948-.979,1.255-1.824,1.368-.538.072-1.092.013-1.636.048-1.372.088-2.735.413-2.861,2.029-.132,1.691,1.034,2.63,2.575,2.943a3.435,3.435,0,0,0,4.144-1.88,9.746,9.746,0,0,0,.053-6.983m-2.7,8.007a5.858,5.858,0,0,1-.913.083c-1.078-.1-2.059-.492-2.122-1.862-.069-1.526,1.075-1.457,2.113-1.473a3.144,3.144,0,0,1,.81,0c.781.2,2-1.216,2.3.306.29,1.474-.679,2.547-2.19,2.951" transform="translate(-70.503 -38.593)" fill="#271f1e"/>
    <path id="Path_97" data-name="Path 97" d="M122.277,1.227c.1-1.057-.622-1.334-1.407-1.193s-1.7.561-1.559,1.578c.268,1.927-.609,1.815-2.075.944a1.565,1.565,0,0,0,2.392,1.072c1.092-.457,2.63-.315,3.086-1.833.075-.251-.141-.49-.437-.568m-2.2,1.069a.583.583,0,0,1-.186-.884c.7-1.05,1.528-.743,2.36-.18l0-.01.016.024-.021-.014A1.5,1.5,0,0,1,120.081,2.3" transform="translate(-69.02 0)" fill="#271f1e"/>
  </g>
</svg>
