<svg id="Group_14" data-name="Group 14" xmlns="http://www.w3.org/2000/svg" xmlns:xlink="http://www.w3.org/1999/xlink" width="115.999" height="31.014" viewBox="0 0 115.999 31.014">
  <defs>
    <clipPath id="clip-path">
      <rect id="Rectangle_12" data-name="Rectangle 12" width="115.999" height="31.014" fill="#fff"/>
    </clipPath>
  </defs>
  <g id="Group_13" data-name="Group 13" clip-path="url(#clip-path)">
    <path id="Path_18" data-name="Path 18" d="M0,39.435c2.834-.019,5.668-.048,8.5-.054q12.326-.025,24.652-.034c1.177,0,1.351-.169,1.357-1.344.007-1.6,0-3.2,0-4.867h1.816c0,1.267-.015,2.5.007,3.739a5.465,5.465,0,0,0,.17,1.378,1.382,1.382,0,0,0,1.429,1.09q7.763,0,15.525.005a.8.8,0,0,0,.912-.83c.034-.672.042-1.346.046-2.019.007-1.23,0-1.23.878-1.231.91,0,.9,0,.92,1.188a11.546,11.546,0,0,0,.082,1.317,2.025,2.025,0,0,0,2.976,1.452,1.517,1.517,0,0,0,.446-1.074c.061-1.007.02-2.02.026-3.03,0-.28.024-.559.039-.89h1.8c0,.7,0,1.416,0,2.129,0,.389,0,.778.021,1.166a2.122,2.122,0,0,0,3,1.817c.157-.072.26-.418.263-.638.023-1.5.012-3.006.014-4.508,0-1.14,0-1.142,1.149-1.119.2,0,.4.032.653.052v7.424a16.528,16.528,0,0,1-3.449-.065c-.662-.144-1.184-.933-1.773-1.437-.333,1.458-1.573,1.654-2.991,1.594-1.206-.051-1.79-.8-2.237-2.035-.373,1.89-1.639,2.041-3.045,2.035-4.447-.019-8.894-.026-13.341,0-1.48.01-2.931.082-3.492-1.823-.42,1.585-1.54,1.815-2.815,1.814q-16.266,0-32.533,0c-.337,0-.673.026-1.01.04Z" transform="translate(0 -27.903)" fill="#fff"/>
    <path id="Path_19" data-name="Path 19" d="M478.764,141.261a1.893,1.893,0,0,1-2.465-.971c-1.147-2-2.46-3.9-3.707-5.841a1.765,1.765,0,0,0-.625-.635c-.017.24-.047.48-.047.721q-.006,2.876,0,5.751c0,1.193-.038,1.223-1.274.99a1.97,1.97,0,0,1-.062-.354c0-3.083.008-6.166-.016-9.249,0-.539.225-.624.691-.663a1.588,1.588,0,0,1,1.7.87c1.248,2.09,2.59,4.125,3.9,6.18a1.157,1.157,0,0,0,.564.49v-1.119q0-2.643,0-5.285c0-1.2.024-1.221,1.327-1v4.443h34.133v1.231H479.852c-1.087,0-1.088,0-1.088,1.092,0,1.13,0,2.26,0,3.351" transform="translate(-397.034 -110.529)" fill="#fff"/>
    <path id="Path_20" data-name="Path 20" d="M35.9,131.779c1.627,0,3.137-.106,4.623.033a2.357,2.357,0,0,1,2.158,2.129,2.773,2.773,0,0,1-1.53,2.745c-.2.107-.408.209-.688.353l3.352,4.8c-1.358.472-2.013.26-2.723-.828s-1.435-2.159-2.113-3.264a.867.867,0,0,0-1.235-.381V141.9H35.922c0-.352.007-.681,0-1.01-.027-1.107-.059-2.215-.09-3.322-1.134-.04-2.269-.115-3.4-.116q-14.861-.014-29.723-.005H1.635v-1.2H35.9Zm1.822,2.685c0,.465.022.931-.006,1.394-.03.511.2.667.689.686a2.094,2.094,0,0,0,2.309-2.848,2.051,2.051,0,0,0-2.535-1.248c-.912.165-.282.933-.447,1.4a1.907,1.907,0,0,0-.01.616" transform="translate(-1.38 -111.155)" fill="#fff"/>
    <path id="Path_21" data-name="Path 21" d="M490.365,43.9c.547,0,.928.01,1.309,0a1.675,1.675,0,0,0,1.827-1.546,17.162,17.162,0,0,0,.165-2.394c.025-2.072.014-4.144.019-6.216a1.17,1.17,0,0,1,.057-.214H495.5c0,1.084,0,2.163,0,3.241,0,2.63.384,3.018,2.992,3.018h31.245v1.237h-.956c-10.06,0-20.121-.014-30.181.017-1.344,0-2.444-.213-2.9-1.714l-.21.087a6.454,6.454,0,0,1-.015,1.311,13.432,13.432,0,0,1-.758,2.808c-.645,1.413-3.041,1.666-4.353.369" transform="translate(-413.74 -28.285)" fill="#fff"/>
    <path id="Path_22" data-name="Path 22" d="M279.656,140.249c-3.681-.077-4.858-2.695-4.644-5.872a6.96,6.96,0,0,1,.162-1.072,4.926,4.926,0,0,1,7.546-3c1.565,1.023,1.927,2.632,1.956,4.333a8.381,8.381,0,0,1-.318,2.369,4.34,4.34,0,0,1-4.7,3.246m3.115-5.277a22.21,22.21,0,0,0-.448-2.523,2.294,2.294,0,0,0-2.438-1.766,2.358,2.358,0,0,0-2.5,1.7,7.935,7.935,0,0,0-.033,5.031,2.631,2.631,0,0,0,4.924.063,20.9,20.9,0,0,0,.495-2.507" transform="translate(-232.017 -109.24)" fill="#fff"/>
    <path id="Path_23" data-name="Path 23" d="M402.069,136.94c0,1.367-.042,2.607.017,3.843.033.688-.293.783-.836.742-.486-.037-1.065.171-1.056-.7q.044-4.465,0-8.93c-.009-.86.545-.691,1.044-.718.528-.029.883.028.849.733-.06,1.238-.017,2.482-.017,3.8h4.6c0-1.273.041-2.535-.016-3.792-.032-.7.315-.766.847-.737.5.027,1.043-.14,1.032.724q-.057,4.348,0,8.7c.012.773-.255,1.03-.982.93-.253-.035-.511-.028-.884-.046,0-1.249-.046-2.458.017-3.662.039-.741-.228-.922-.924-.892-1.188.051-2.38.014-3.689.014" transform="translate(-337.658 -110.673)" fill="#fff"/>
    <path id="Path_24" data-name="Path 24" d="M445.762,40.655c-1.366,0-2.685-.028-4,.014a.821.821,0,0,1-.949-.654,6.307,6.307,0,0,1-.257-3.878,4.124,4.124,0,0,1,3.963-3.038c.984-.021,1.969,0,2.984,0a1.95,1.95,0,0,1,.119.462c-.028,2.586-.029,5.173-.116,7.757a2.929,2.929,0,0,1-1.822,2.76,3.888,3.888,0,0,1-3.838-.473,2.808,2.808,0,0,1,.458-.085c.493-.011.989.033,1.478-.011,1.389-.127,2.036-1.027,1.98-2.85m.024-3.728h0c0-.673.028-1.348-.017-2.018a.73.73,0,0,0-.364-.552,2.47,2.47,0,0,0-3,1.6,6.028,6.028,0,0,0-.111,2.363c.145,1.1.224,1.1,1.367,1.1.468,0,.937-.023,1.4.005.527.032.764-.156.733-.707-.033-.593-.008-1.19-.008-1.786" transform="translate(-371.543 -27.918)" fill="#fff"/>
    <path id="Path_25" data-name="Path 25" d="M345.279,140.827l.3-.872c1.1.032,2.1.108,3.09.074a1.323,1.323,0,0,0,1.32-1.118,1.441,1.441,0,0,0-.7-1.6c-.715-.471-1.455-.9-2.18-1.358a2.764,2.764,0,0,1-1.443-3.412A2.674,2.674,0,0,1,348.5,130.7a16.341,16.341,0,0,1,2.4.185.678.678,0,0,1,.406.533c-.04.318-.1.689-.68.585a7.052,7.052,0,0,0-2.294-.084,1.67,1.67,0,0,0-1,.915,1.054,1.054,0,0,0,.5,1.342c.835.524,1.681,1.03,2.514,1.557a2.777,2.777,0,0,1,1.424,2.738,2.627,2.627,0,0,1-2.243,2.612,8.155,8.155,0,0,1-4.25-.254" transform="translate(-291.325 -110.274)" fill="#fff"/>
    <path id="Path_26" data-name="Path 26" d="M392.044,13.7l1.375,1.655h-2.745l1.37-1.655" transform="translate(-329.627 -11.558)" fill="#fff"/>
    <path id="Path_27" data-name="Path 27" d="M110.4,15.4l1.359-1.647,1.382,1.647Z" transform="translate(-93.145 -11.606)" fill="#fff"/>
    <path id="Path_28" data-name="Path 28" d="M366.974,15.417l1.378-1.663,1.4,1.663Z" transform="translate(-309.63 -11.605)" fill="#fff"/>
    <path id="Path_29" data-name="Path 29" d="M378.837,1.653,380.206,0,381.6,1.653Z" transform="translate(-319.639 0.001)" fill="#fff"/>
    <path id="Path_30" data-name="Path 30" d="M300.887,159.921h-2.772l1.39-1.652,1.382,1.652" transform="translate(-251.531 -133.538)" fill="#fff"/>
  </g>
</svg>
