<svg id="Group_21" data-name="Group 21" xmlns="http://www.w3.org/2000/svg" xmlns:xlink="http://www.w3.org/1999/xlink" width="32.618" height="45.221" viewBox="0 0 32.618 45.221">
  <defs>
    <clipPath id="clip-path">
      <rect id="Rectangle_17" data-name="Rectangle 17" width="32.618" height="45.221" fill="#fff"/>
    </clipPath>
  </defs>
  <g id="Group_20" data-name="Group 20" clip-path="url(#clip-path)">
    <path id="Path_98" data-name="Path 98" d="M190.309,4.27l2.618,2.257a.369.369,0,0,1,.124.316c0,.088,0,.177,0,.265,0,1.578,0,1.579,1.264,2.537.076.058.148.169.262.111.092-.047.062-.158.058-.241A10.632,10.632,0,0,0,194.58,7.8a2.085,2.085,0,0,0-.7-1.19c-1.095-.936-2.186-1.875-3.286-2.8a.824.824,0,0,1-.332-.716c.024-.734.008-1.469.008-2.277.414.374.78.717,1.159,1.045,1.722,1.491,3.451,2.974,5.169,4.469a2.062,2.062,0,0,1,.719,1.6c.007,1.324,0,2.649,0,3.973a1.162,1.162,0,0,1-.405.895c-.168.153-.239.254-.016.432a1.21,1.21,0,0,1,.41.942c.012.25.009.5.009.75q0,11.765.008,23.53a1.214,1.214,0,0,1-.4.959c-.758.738-1.479,1.514-2.244,2.305a.8.8,0,0,1-.114-.578c0-8.771-.019-17.541.017-26.312a3,3,0,0,0-1.516-2.508V12.9q0,14.9,0,29.8a1.142,1.142,0,0,1-.364.885c-.764.773-1.494,1.58-2.237,2.373l-.149-.1Z" transform="translate(-173.416 -0.74)" fill="#fff"/>
    <path id="Path_99" data-name="Path 99" d="M99.858,84.017c-.132.014-.175-.077-.234-.135-.728-.707-1.446-1.424-2.185-2.119a.96.96,0,0,1-.32-.772q.013-13.289.009-26.577v-.6a11.49,11.49,0,0,0-1.836,1.674,1.779,1.779,0,0,0-.225,1.192c.026.441.028.882.029,1.322,0,5.68.016,11.361-.01,17.041-.006,1.409-.033,2.819-.026,4.229-.031.006-.072.024-.084.013q-1.285-1.239-2.568-2.481a.55.55,0,0,1-.13-.448q0-12.958,0-25.915a2.481,2.481,0,0,1,.87-1.681c.819-.868,1.771-1.59,2.667-2.374,1.106-.968,2.227-1.918,3.342-2.876.241-.207.48-.416.723-.626v2.5c0,.153-.11.227-.212.315-1.326,1.14-2.644,2.289-3.977,3.421a1.522,1.522,0,0,0-.6,1.261c.015.7,0,1.41,0,2.2.672-.595,1.3-1.152,1.931-1.711a.352.352,0,0,0,.1-.284c0-.162.005-.324,0-.485-.074-1.333-.072-1.33.929-2.179.589-.5,1.168-1.011,1.806-1.564Z" transform="translate(-84.11 -39.092)" fill="#fff"/>
    <path id="Path_100" data-name="Path 100" d="M287.19,84.307c.953.828,1.793,1.563,2.639,2.289a.642.642,0,0,1,.179.562c0,1.251-.023,2.5.008,3.753.016.638-.19.74-.744.878a2.281,2.281,0,0,1-.3.029c.2.174.367.308.52.459a1.672,1.672,0,0,1,.523,1.259c-.014,2.958-.008,5.916,0,8.874a.723.723,0,0,1-.21.592c-.81.77-1.606,1.555-2.408,2.333a1.217,1.217,0,0,1-.143.1.962.962,0,0,1-.047-.49c0-3.517-.012-7.035.005-10.552a1.931,1.931,0,0,0-.813-1.788,15.988,15.988,0,0,1-1.227-1.036v.567q0,7.439.007,14.879a1.008,1.008,0,0,1-.331.81c-.7.668-1.383,1.363-2.073,2.046-.1.1-.21.195-.375.347V80.125c.194.041.319.21.461.338.7.63,1.385,1.274,2.087,1.9a.7.7,0,0,1,.228.584c-.007,1.457.008,2.914-.012,4.371a.954.954,0,0,0,.382.864c.538.42,1.044.882,1.65,1.4Z" transform="translate(-257.398 -73.033)" fill="#fff"/>
    <path id="Path_101" data-name="Path 101" d="M15.76,0c0,.866.032,1.685-.013,2.5A1.538,1.538,0,0,1,15.081,3.5Q13.1,5.22,11.108,6.93c-.936.8-1.884,1.6-2.809,2.411a3.994,3.994,0,0,0-1.246,3.183q-.009,11.675,0,23.35v.473c-.158.044-.207-.07-.274-.135-.72-.693-1.428-1.4-2.16-2.08a1,1,0,0,1-.329-.81q.012-9.137.007-18.274a2.206,2.206,0,0,0-.1-.738c-.263-.758-.77-.908-1.372-.382s-1.2,1.08-1.8,1.62C.712,15.827.4,16.1,0,16.457c0-.874,0-1.633,0-2.391,0-.206.169-.3.3-.415C4.878,9.712,9.448,5.763,13.938,1.723,14.545,1.177,15.126.6,15.76,0" transform="translate(0)" fill="#fff"/>
    <path id="Path_102" data-name="Path 102" d="M5.17,194.659q-1.246-1.275-2.493-2.548a.516.516,0,0,1-.126-.4q0-5.845,0-11.69a.54.54,0,0,1,.238-.481c.608-.462,1.2-.947,1.8-1.417.364-.285.632-.174.7.286a2.357,2.357,0,0,1,.016.352q0,7.808,0,15.616c0,.07-.007.141-.011.211l-.119.075" transform="translate(-2.323 -162.211)" fill="#fff"/>
  </g>
</svg>
