<svg id="Group_27" data-name="Group 27" xmlns="http://www.w3.org/2000/svg" xmlns:xlink="http://www.w3.org/1999/xlink" width="35.153" height="37.857" viewBox="0 0 35.153 37.857">
  <defs>
    <clipPath id="clip-path">
      <rect id="Rectangle_20" data-name="Rectangle 20" width="35.153" height="37.857" fill="#fff"/>
    </clipPath>
  </defs>
  <g id="Group_26" data-name="Group 26" transform="translate(0 0)" clip-path="url(#clip-path)">
    <path id="Path_113" data-name="Path 113" d="M0,26.068V0H30.683V19.054a1.485,1.485,0,0,0,0,.18c.014.113-.042.158-.144.185a13.085,13.085,0,0,0-3.681,1.647c-1.089.692-2.143,1.437-3.22,2.149A32.6,32.6,0,0,1,19.787,25.5a5.082,5.082,0,0,1-1.824.576,1.622,1.622,0,0,1-1.75-.926,2.219,2.219,0,0,1-.137-1.426,12.5,12.5,0,0,1,1.271-3.179c.153-.275.327-.538.509-.837.064.194.109.343.162.489a4.79,4.79,0,0,0,.92,1.7,1.4,1.4,0,0,0,1.41.467,1.944,1.944,0,0,0,1.58-1.287A4.022,4.022,0,0,0,22.09,19.1,4.834,4.834,0,0,0,20.9,16.738a1.073,1.073,0,0,0-.107-.1.263.263,0,0,0-.029.062c-.047.484-.1.967-.135,1.451a.255.255,0,0,0,.071.171,4.04,4.04,0,0,1,.9,1.6.285.285,0,0,1-.064.31,1.949,1.949,0,0,1-1.054.619,1.053,1.053,0,0,1-1.14-.389,4.279,4.279,0,0,1-.375-.611,9.787,9.787,0,0,1-.824-3.224c-.133-.926-.252-1.853-.375-2.78-.128-.957-.252-1.914-.382-2.87s-.242-1.916-.4-2.867a11.1,11.1,0,0,0-1.318-3.8,6.039,6.039,0,0,0-2.709-2.577,8.145,8.145,0,0,0-1.126-.362c-.09-.026-.211-.069-.286.065a2.737,2.737,0,0,0-.4,1.812c.183,1.093.4,2.18.617,3.268.229,1.176.465,2.35.7,3.525.312,1.569.621,3.138.941,4.706.227,1.115.457,2.23.709,3.34a1.166,1.166,0,0,1-.379,1.257c-.355.3-.677.649-1.043.94A29.8,29.8,0,0,1,7.54,23.544a26.382,26.382,0,0,1-5.188,2.014c-.775.2-1.568.342-2.352.509M19.588,13.826l1.678.985.8-1.355-1.46-.859.6-1.047-1.678-.983-.793,1.355,1.457.861-.606,1.043m.493-6.087c-.1-.259-.179-.474-.276-.678a1.954,1.954,0,0,0-1.058-1.052.226.226,0,0,0-.332.139c-.019.044-.038.088-.056.133-.173.431-.174.434.252.616a.741.741,0,0,0,.353.1c.111-.015.173,0,.22.085.183.315.368.629.536.953.109.21.189.436.282.655h.049A1.724,1.724,0,0,0,20.16,8.4c.056-.294.083-.594.15-.886a10.281,10.281,0,0,1,.314-1.138c.08-.225.252-.236.422-.06.1.1.184.218.31.369a4.384,4.384,0,0,0,.173-.574c.03-.191-.2-.457-.437-.542a.377.377,0,0,0-.478.186,2.326,2.326,0,0,0-.28.654c-.1.422-.165.854-.253,1.333" transform="translate(-0.181 -0.397)" fill="#fff"/>
    <path id="Path_114" data-name="Path 114" d="M0,111.506c.42-.062.843-.105,1.258-.19a22.076,22.076,0,0,0,4.867-1.68,35.419,35.419,0,0,0,5.679-3.289,8.829,8.829,0,0,0,2.291-2.245,3.8,3.8,0,0,0,.589-2.079,17.536,17.536,0,0,0-.4-4.128c-.374-1.775-.721-3.557-1.078-5.336s-.708-3.536-1.062-5.3c-.009-.045-.01-.091-.017-.155a4.328,4.328,0,0,1,1.675.916,6.682,6.682,0,0,1,1.7,2.41,11.075,11.075,0,0,1,.835,3.186c.129,1.077.29,2.151.441,3.226.16,1.146.314,2.294.491,3.437.162,1.042.35,2.079.532,3.117a.291.291,0,0,1-.093.27,9.935,9.935,0,0,0-1.983,3.233,6.248,6.248,0,0,0-.391,1.949,2.6,2.6,0,0,0,2.229,2.712,4.575,4.575,0,0,0,2.483-.437,16.093,16.093,0,0,0,2.891-1.714c1.252-.892,2.493-1.8,3.742-2.695a12.074,12.074,0,0,1,3.775-1.857c.068-.019.137-.032.222-.052v9.838H.234c-.078,0-.156,0-.234,0Z" transform="translate(-0.181 -84.356)" fill="#fff"/>
    <path id="Path_115" data-name="Path 115" d="M0,940c.5,0,1.007,0,1.51.014a3.492,3.492,0,0,1,.73.078,1.1,1.1,0,0,1,.53,1.824,1.727,1.727,0,0,1-.82.494l-.2.06c.238.3.46.59.69.872.385.474.775.945,1.163,1.417H2.632c-.549-.712-1.1-1.425-1.65-2.132-.041-.052-.132-.064-.233-.11,0,.115,0,.18,0,.245q.022,1,.044,2H0v-.288a.957.957,0,0,0,.031-.172q0-1.928,0-3.856a.822.822,0,0,0-.03-.154V940m.775.426v1.717a1.7,1.7,0,0,0,1.213-.218.833.833,0,0,0,.354-.816.7.7,0,0,0-.465-.629,2.253,2.253,0,0,0-1.1-.055" transform="translate(-0.181 -906.505)" fill="#fff"/>
    <path id="Path_116" data-name="Path 116" d="M552,942.787c.157-.362.312-.725.472-1.086q.794-1.791,1.593-3.581c.035-.078.049-.167.177-.166s.142.08.177.163q.876,2.059,1.755,4.117c.08.187.174.369.261.553h-.865c-.215-.559-.426-1.12-.65-1.675a.247.247,0,0,0-.187-.116c-.438-.01-.876,0-1.315-.007a.18.18,0,0,0-.2.139c-.159.439-.326.876-.485,1.315a3.377,3.377,0,0,0-.086.344Zm2.116-3.634-.048-.009-.605,1.407h1.264l-.611-1.4" transform="translate(-532.278 -904.533)" fill="#fff"/>
    <path id="Path_117" data-name="Path 117" d="M201,945.491c.025-.984.063-1.967.072-2.951.005-.57-.036-1.14-.056-1.71a.4.4,0,0,1,.011-.071h2.508v.513l-1.756-.093V942.8l1.594-.067v.478h-1.084c-.12,0-.241.005-.36,0s-.182.025-.179.167c.009.5.008,1,0,1.5,0,.141.048.192.19.185.538-.026,1.077-.044,1.625-.065l.028.5h-.5a.886.886,0,0,0-.155-.028q-.675,0-1.349,0a.9.9,0,0,0-.155.028Z" transform="translate(-193.933 -907.237)" fill="#fff"/>
    <path id="Path_118" data-name="Path 118" d="M374.082,945.49c.093-1.414.075-2.828.043-4.277l-1.423.072v-.527h3.563v.528l-1.451-.075.062,4.279Z" transform="translate(-359.444 -907.236)" fill="#fff"/>
    <path id="Path_119" data-name="Path 119" d="M779,945.257q.02-1.837.038-3.674c0-.352,0-.7,0-1.067h.7c0,.413,0,.819,0,1.225,0,.672-.007,1.345-.006,2.017,0,.288.018.576.012.863,0,.153.03.213.2.2.52-.039,1.041-.062,1.562-.091a.825.825,0,0,1,.089.006v.52h-.5a.691.691,0,0,0-.137-.028q-.711,0-1.421,0a.69.69,0,0,0-.137.028Z" transform="translate(-751.094 -907.002)" fill="#fff"/>
    <path id="Path_120" data-name="Path 120" d="M936.129,807.717l-.2-.012-.118-1.148-.048-.011-.6,1.143-.584-1.143-.045.011c-.035.338-.068.676-.106,1.014a.649.649,0,0,1-.055.149l-.072-.022.222-1.6.687,1.3.679-1.247.039,0c.028.237.053.474.084.711.036.272.077.544.116.816Z" transform="translate(-900.795 -777.431)" fill="#fff"/>
    <path id="Path_121" data-name="Path 121" d="M896.424,807.878h1.158c0,.023,0,.045,0,.068a2.969,2.969,0,0,1-.316,0c-.145-.015-.187.042-.184.182.009.383,0,.767.009,1.15,0,.127-.031.18-.173.132v-.968c0-.072,0-.144,0-.216,0-.284,0-.284-.281-.278-.072,0-.144,0-.216,0,0-.023,0-.046,0-.069" transform="translate(-864.282 -779.147)" fill="#fff"/>
  </g>
</svg>
