<svg id="Group_29" data-name="Group 29" xmlns="http://www.w3.org/2000/svg" xmlns:xlink="http://www.w3.org/1999/xlink" width="65.999" height="27.837" viewBox="0 0 65.999 27.837">
  <defs>
    <clipPath id="clip-path">
      <rect id="Rectangle_21" data-name="Rectangle 21" width="65.999" height="27.837" fill="#fff"/>
    </clipPath>
  </defs>
  <g id="Group_28" data-name="Group 28" clip-path="url(#clip-path)">
    <path id="Path_122" data-name="Path 122" d="M105.244,31.2c-.015-.33-.033-.7-.056-1.188.641,0,1.223,0,1.8,0,.975-.009,1.949-.033,2.924-.034.658,0,1.076-.323,1.062-.962a26.912,26.912,0,0,0-.25-3.864,2.116,2.116,0,0,0-2.212-1.874c-.512-.042-1.028-.024-1.543-.021-.406,0-.67-.1-.67-.589,0-.455.193-.66.627-.637a24.9,24.9,0,0,1,3.232.216,3.183,3.183,0,0,1,2.628,2.845,22.035,22.035,0,0,1,.185,2.585c.083,1.651.628,2.274,2.262,2.315,2.246.057,4.495.027,6.743.027q8.206,0,16.412-.007c1.723,0,1.88-.163,1.89-1.918,0-.677.026-1.355-.01-2.03-.032-.607.275-.78.793-.693.454.077,1.182-.3,1.149.664a15,15,0,0,0,.032,1.947,2.358,2.358,0,0,0,3.434,1.893,1.529,1.529,0,0,0,.583-1.117,33.958,33.958,0,0,0,.016-3.733c-.04-.8.368-.85.987-.864.658-.015,1,.115.974.884a20.448,20.448,0,0,0,.127,3.235,1.786,1.786,0,0,0,1.988,1.718c1.771.081,1.772.081,1.771-1.7,0-1.516.032-3.033-.024-4.547-.031-.832.432-.818,1.022-.826s.964.032.949.8c-.044,2.273-.029,4.547,0,6.82.007.592-.173.833-.789.8-.729-.045-1.462-.033-2.193-.008a2.322,2.322,0,0,1-2.44-1.507,5.235,5.235,0,0,0-.416-.63c-.353,1.715-1.476,2.095-2.9,2.15a2.752,2.752,0,0,1-3.008-2.055c-.606,2.029-2.1,2.045-3.646,2.042-7.285-.014-14.57-.028-21.855.006-1.632.008-3.145-.022-3.69-2.239-.2.423-.277.569-.334.725a1.816,1.816,0,0,1-1.572,1.354c-1.964.077-3.933.026-5.98.026" transform="translate(-88.075 -18.44)" fill="#fff"/>
    <path id="Path_123" data-name="Path 123" d="M4.314,35.787c-.974,0-1.948.025-2.92-.018a.977.977,0,0,1-.707-.376,5.581,5.581,0,0,1,1.629-7.225A8.69,8.69,0,0,1,4.991,27.4,5.644,5.644,0,0,1,6.2,27.386c1.587,0,1.666,0,1.736,1.538.093,2.047.042,4.1.065,6.149.006.545-.192.758-.771.728-.971-.05-1.946-.014-2.92-.014m1.951-3.961c-.065-.741-.15-1.546-.2-2.353-.035-.554-.252-.8-.853-.806A2.808,2.808,0,0,0,2.122,31.05,8.96,8.96,0,0,0,2.236,33.6a.958.958,0,0,0,1.194.893,16.579,16.579,0,0,1,1.943-.016c.47.014.707-.178.739-.647.043-.646.1-1.29.153-2.007" transform="translate(0 -22.907)" fill="#fff"/>
    <path id="Path_124" data-name="Path 124" d="M174.026,119.513c1.988.04,3.876-.345,5.592.708a2.425,2.425,0,0,1,.656.591,4.762,4.762,0,0,1,.451,4.79,3.322,3.322,0,0,1-3.235,2.172c-.945.037-1.894.057-2.838.02-.214-.008-.6-.284-.6-.441-.038-2.568-.027-5.136-.027-7.84m1.488,4.136c0,.89-.026,1.781.017,2.67a.9.9,0,0,0,.361.691,2.613,2.613,0,0,0,3.358-1.707,7.521,7.521,0,0,0,.189-2.309c-.149-2.025-1.2-2.875-3.215-2.756-.514.03-.724.229-.712.741.02.89.006,1.78,0,2.67" transform="translate(-145.712 -100.039)" fill="#fff"/>
    <path id="Path_125" data-name="Path 125" d="M257.27,119.27c1.194.077,2.484.079,3.746.271a1.84,1.84,0,0,1,1.512,1.706,2.269,2.269,0,0,1-1.1,2.358c-.575.343-.647.558-.2,1.082.771.893,1.454,1.861,2.189,2.815-1.178.381-1.576.249-2.231-.675-.515-.727-1.018-1.465-1.578-2.157a2.506,2.506,0,0,0-.785-.441,2.66,2.66,0,0,0-.29.754c-.041.7-.034,1.4-.01,2.106.019.569-.342.574-.744.582-.376.008-.7.016-.7-.517.019-2.512.02-5.024.032-7.536,0-.048.042-.1.159-.349m1.255,2.407c0,.376.013.753,0,1.129-.023.546.205.763.767.749.6-.016,1.248-.063,1.415-.679a4.363,4.363,0,0,0,.087-2.075,1.576,1.576,0,0,0-1.84-.827c-.731.219-.332.85-.423,1.3a2.036,2.036,0,0,0,0,.4" transform="translate(-215.254 -99.866)" fill="#fff"/>
    <path id="Path_126" data-name="Path 126" d="M54.665,33.2c.329,0,.58-.014.829,0,1.677.114,2.5-.521,2.689-2.192a27.329,27.329,0,0,0,.118-2.836c.017-1.841.025-3.682-.005-5.522-.011-.655.249-.872.87-.817.551.049,1.143-.12,1.124.819-.049,2.327.063,4.659-.048,6.982a7.918,7.918,0,0,1-.773,3.012,3.138,3.138,0,0,1-4.8.552" transform="translate(-45.771 -18.279)" fill="#fff"/>
    <path id="Path_127" data-name="Path 127" d="M327.6,127.705c.89-2.544,1.8-5.08,2.657-7.632.236-.7.756-.544,1.246-.582.474-.037.707.145.865.624.776,2.36,1.6,4.7,2.4,7.055.059.173.088.355.131.531-1.288.357-1.475.238-1.834-.915-.621-1.992-.333-1.563-2.106-1.605-1.282-.031-1.283-.005-1.684,1.179-.078.23-.153.462-.232.692-.3.89-.427.949-1.446.653m2.312-3.325c.793,0,1.332.026,1.866-.017.146-.012.414-.265.393-.342-.3-1.063-.636-2.114-.965-3.168l-.277.011-1.017,3.516" transform="translate(-274.302 -100.047)" fill="#fff"/>
    <path id="Path_128" data-name="Path 128" d="M111.493,119.643c.193.62.037.878-.535.85-.432-.022-.866-.015-1.3-.019-.135,0-.271,0-.406.01-1.04.089-.552.906-.577,1.383-.024.458-.4,1.24.569,1.312.485.036.98-.029,1.459.034.187.025.344.277.515.425-.179.144-.351.3-.541.425-.056.038-.16,0-.24.008-.57.078-1.562.034-1.632.266a7.2,7.2,0,0,0-.1,2.4c.006.123.4.312.626.324.753.041,1.51.015,2.3.015.16.573.118.915-.58.9q-1.624-.039-3.249,0c-.507.011-.646-.2-.642-.677q.025-3.451-.006-6.9c-.006-.545.138-.78.727-.761,1.209.037,2.42.011,3.608.011" transform="translate(-89.724 -100.168)" fill="#fff"/>
    <path id="Path_129" data-name="Path 129" d="M35.039,127.986l.319-.768a15.173,15.173,0,0,0,2.431-.037,1.482,1.482,0,0,0,1.022-.813,1.616,1.616,0,0,0-.4-1.267,6.076,6.076,0,0,0-1.337-.888,9.62,9.62,0,0,1-1.069-.73,2.109,2.109,0,0,1-.591-2.225,1.677,1.677,0,0,1,1.48-1.425c1-.1,2.02-.025,3.194-.025l-.279.9a7.873,7.873,0,0,0-1.926-.086,1.821,1.821,0,0,0-1.133.837c-.273.542.2.94.665,1.221.6.364,1.221.7,1.8,1.092a2.315,2.315,0,0,1,1.1,2.574,2.263,2.263,0,0,1-2.166,1.769c-.978.05-1.965-.073-3.115-.127" transform="translate(-29.338 -100.293)" fill="#fff"/>
    <path id="Path_130" data-name="Path 130" d="M13.065,1.965a.994.994,0,0,1-1.051-.932,1.011,1.011,0,0,1,1-1.033.9.9,0,0,1,1,.919c.034.678-.364.961-.953,1.046" transform="translate(-10.051 0)" fill="#fff"/>
    <path id="Path_131" data-name="Path 131" d="M32.871.058a.924.924,0,0,1,.978.952.944.944,0,0,1-1.025,1,.933.933,0,0,1-.967-.992A.931.931,0,0,1,32.871.058" transform="translate(-26.673 -0.049)" fill="#fff"/>
  </g>
</svg>
