<svg id="Group_19" data-name="Group 19" xmlns="http://www.w3.org/2000/svg" xmlns:xlink="http://www.w3.org/1999/xlink" width="109.29" height="35.017" viewBox="0 0 109.29 35.017">
  <defs>
    <clipPath id="clip-path">
      <rect id="Rectangle_16" data-name="Rectangle 16" width="109.29" height="35.017" fill="#fff"/>
    </clipPath>
  </defs>
  <g id="Group_18" data-name="Group 18" clip-path="url(#clip-path)">
    <path id="Path_81" data-name="Path 81" d="M180.207,52.667c.224.831,1,1.075,1.611,1.471,3.38,2.186,6.773,4.352,10.186,6.541-.536.671-1.007.217-1.418.087-9.885-3.132-19.756-6.307-29.652-9.4a1.757,1.757,0,0,1-1.466-2.077c.086-3.035.028-6.074.028-9.452,3.262,2.087,6.256,4,9.248,5.918q4.957,3.177,9.91,6.358c.48.307.929.713,1.573.583Z" transform="translate(-104.167 -26.02)" fill="#fff"/>
    <path id="Path_82" data-name="Path 82" d="M231.448,28.927q9.847-6.266,19.7-12.531c.367-.233.756-.433,1.382-.789,0,3.578,0,6.9,0,10.222,0,.892-.711.94-1.294,1.125q-11.44,3.622-22.884,7.235c-2.413.765-4.818,1.556-7.225,2.342a3.328,3.328,0,0,1-1.847.312l.021.025,12.17-7.964Z" transform="translate(-143.239 -10.195)" fill="#fff"/>
    <path id="Path_83" data-name="Path 83" d="M208.214,28.953H183.806c-.335-.661.06-.861.265-1.079q5.375-5.747,10.779-11.467c.442-.469.779-1.194,1.6-.3,3.757,4.063,7.567,8.078,11.347,12.121a3.186,3.186,0,0,1,.393.752l.023-.023" transform="translate(-119.982 -10.244)" fill="#fff"/>
    <path id="Path_84" data-name="Path 84" d="M14.832,73.8c-.763-1.15-.476-2.4-.441-3.617a9.332,9.332,0,0,0-.022-2.063c-.262-1.369-.9-2.232-2.443-2.064a2.236,2.236,0,0,0-2.16,2.44c-.044,1.717-.011,3.437-.011,5.192-.921-.067-.776-.627-.78-1.026-.016-1.384.057-2.771.01-4.153-.048-1.408-.568-2.5-2.22-2.524a2.372,2.372,0,0,0-2.484,2.53c-.082,1.438-.018,2.884-.044,4.327-.006.3.119.7-.309.862-.422-.033-.432-.351-.432-.624,0-2.25,0-4.5.057-6.751.009-.389-.281-1.54.812-.543.384.35.733-.135,1.062-.3.6-.3,1.345-.561,1.827-.252a4.091,4.091,0,0,0,4.388.16c1.592-.721,3.293.72,3.5,2.6a20.177,20.177,0,0,1-.311,5.8" transform="translate(-2.283 -42.518)" fill="#fff"/>
    <path id="Path_85" data-name="Path 85" d="M48.752,65.294c0,2.92,0,5.537,0,8.154,0,.249-.232.585-.338.49-1.032-.924-1.879.286-2.841.207a2.689,2.689,0,0,1-2.493-1.556c-1.027-2.308-.272-4.666-.249-7.014a3.009,3.009,0,0,1,.584,2.386,11.084,11.084,0,0,0,.049,3.433c.313,1.276,1.016,2.166,2.365,2.016a2.246,2.246,0,0,0,2.206-2.405c0-1.267.019-2.535.078-3.8a2.021,2.021,0,0,1,.64-1.911" transform="translate(-27.789 -42.652)" fill="#fff"/>
    <path id="Path_86" data-name="Path 86" d="M93.115,68.543c-.637-.264-.42-.764-.59-1.1A2.336,2.336,0,0,0,90.2,65.967a2.241,2.241,0,0,0-2.08,1.79A7.379,7.379,0,0,0,88,71.338a2.4,2.4,0,0,0,2.531,2.109,2.214,2.214,0,0,0,2.428-1.964c.054-.263-.02-.591.565-.744a2.282,2.282,0,0,1-.906,2.752,3.3,3.3,0,0,1-5.037-1.035,6.407,6.407,0,0,1,.106-5.669,3.086,3.086,0,0,1,3.9-1.3,2.424,2.424,0,0,1,1.525,3.053" transform="translate(-56.814 -42.624)" fill="#fff"/>
    <path id="Path_87" data-name="Path 87" d="M216.173,59.588c.311,1.4-.037,2.059-1.615,1.942-1.272-.094-2.345.129-2.183-1.809.116-1.392.165-2.176,1.926-2.1,1.523.069,2.323.33,1.872,1.963" transform="translate(-138.719 -37.639)" fill="#fff"/>
    <path id="Path_88" data-name="Path 88" d="M66.379,74.682c0-2.843,0-5.452.007-8.061a.668.668,0,0,1,.16-.458c.2-.175.444.116.538.1,1.916-.231,3.936-.972,5.21,1.317a.516.516,0,0,1,.034.332,1.018,1.018,0,0,1-.165.286c-.445.032-.548-.358-.759-.611a2.325,2.325,0,0,0-2.784-.781A2.249,2.249,0,0,0,67.109,69.1c-.03,1.325-.021,2.651-.062,3.976-.015.484.218,1.054-.667,1.607" transform="translate(-43.36 -43.092)" fill="#fff"/>
    <path id="Path_89" data-name="Path 89" d="M112.656,74.976v-8.27l.354,0v8.262l-.354,0" transform="translate(-73.59 -43.574)" fill="#fff"/>
    <path id="Path_90" data-name="Path 90" d="M28.042,48.188c.079.672-.261.884-.887.9-.777.022-.941-.376-.93-1.051.01-.653.292-.878.922-.9.792-.026.974.382.9,1.048" transform="translate(-17.13 -30.792)" fill="#fff"/>
    <path id="Path_91" data-name="Path 91" d="M36.022,47.973c.042.66-.1,1.063-.823,1.082-.748.02-1.013-.3-1.018-1.024-.005-.739.286-1.033,1.025-1,.707.027.887.4.816.947" transform="translate(-22.328 -30.718)" fill="#fff"/>
    <path id="Path_92" data-name="Path 92" d="M30.555,5.638c1.271-1.2,2.859-1.125,4.368-1.563-.678,1.057-2.214,1.6-4.368,1.563" transform="translate(-19.959 -2.662)" fill="#fff"/>
    <path id="Path_93" data-name="Path 93" d="M67.114,48.591C66.022,49.911,64.427,49.7,63,50c1.159-1.115,2.674-1.145,4.111-1.413" transform="translate(-41.155 -31.741)" fill="#fff"/>
    <path id="Path_94" data-name="Path 94" d="M30.974,16.223c-.01-.691.274-1.592-1-1.545s-.9.98-.924,1.641c-.058,1.614-.007,3.233-.061,4.847-.045,1.339-1.061,1.232-2.007,1.305-1.112.086-1.185-.519-1.165-1.376.04-1.731,0-3.463.011-5.195,0-.672.03-1.263-.954-1.228-.905.032-.813.616-.816,1.186-.009,1.789-.095,3.584.011,5.367.085,1.421-.785,1.264-1.658,1.24s-1.889.265-1.775-1.3c.129-1.78.033-3.577.023-5.366,0-.5.1-1.068-.725-1.078-.759-.01-.814.443-.824,1.008-.02,1.211-.114,2.423-.077,3.632.1,3.252-.11,3.449-3.353,3.091a1.954,1.954,0,0,1-2.029-2.257,20.092,20.092,0,0,0-.029-3.286c-.1-.791.77-2.264-.973-2.182-1.523.072-.763,1.371-.818,2.167-.1,1.379.028,2.786-.187,4.141-.265,1.668-1.709,1.378-2.9,1.435-1.4.066-.98-.974-1.015-1.687-.048-.979-.007-1.962-.006-2.943.005-3.189,0-3.142-3.217-3.175-1.81-.018-3.461.252-4.029,2.209-.618,2.131-.917,4.322.831,6.183a3.245,3.245,0,0,0,2.45,1.1c2.079,0,4.232.341,6.214-.1a12.392,12.392,0,0,1,5.806,0c1.859.439,3.9.093,5.866.092h5.542c.115,0,.231,0,.346,0,2.239-.052,3.282-.995,3.411-3.25.089-1.554.046-3.116.024-4.675M5.536,22.353a3.085,3.085,0,0,1-2.5-.171c-1.074-.621-1.521-2.492-1.048-4.232a2.334,2.334,0,0,1,2.706-1.813c.95.03,1.382.274,1.271,1.278a17.347,17.347,0,0,0-.013,1.89h.007a10.865,10.865,0,0,1-.011,1.374c-.075.58.367,1.428-.411,1.674" transform="translate(0 -9.577)" fill="#fff"/>
    <path id="Path_95" data-name="Path 95" d="M107.168,16.138c-.319-2.295-1.8-3.761-3.763-3.846-1.928-.083-3.407,1.3-3.843,3.7-.174.956-.085,1.964-.3,2.907-.255,1.123-.848,2.1-2.227,1.958a1.845,1.845,0,0,1-1.829-2.233c.049-.63.008-1.267.008-1.9h.008q0-1.211,0-2.421c0-.586.051-1.149-.833-1.18-.965-.035-.969.539-.966,1.223.01,2.075-.007,4.15,0,6.225,0,1.618.182,3.279-1.685,4.167-.493.234-.421.837-.244,1.244.223.513.742.223,1.072.121a3.267,3.267,0,0,0,2.392-2.685c.16-.88.443-1.328,1.494-.94a2.9,2.9,0,0,0,2.924-.583c.628-.534,1.005-.507,1.708-.031a3.74,3.74,0,0,0,5.9-2.128,7.942,7.942,0,0,0,.182-3.594m-4.063,4.8c-1.354-.1-1.933-1.131-1.938-3.459,0-2.345.676-3.509,2.076-3.548,1.465-.041,2.281,1.257,2.257,3.593q-.035,3.588-2.4,3.414" transform="translate(-59.678 -8.027)" fill="#fff"/>
    <path id="Path_96" data-name="Path 96" d="M125.474,66.892a2.526,2.526,0,0,0-4.453-.014c-.393.871-.2,1.642.943,2.535-.1-1.318-.869-2.484.572-3a1.7,1.7,0,0,1,1.928.328,2.537,2.537,0,0,1,.631,2.244c-.14.8-.825,1.058-1.538,1.153-.454.06-.921.011-1.379.04-1.156.074-2.306.348-2.412,1.711a2.326,2.326,0,0,0,2.171,2.481,2.9,2.9,0,0,0,3.494-1.585,8.218,8.218,0,0,0,.045-5.888M123.2,73.643a4.939,4.939,0,0,1-.77.07c-.909-.085-1.736-.415-1.789-1.57-.058-1.287.906-1.228,1.782-1.242a2.651,2.651,0,0,1,.683,0c.659.171,1.687-1.025,1.941.258a2.148,2.148,0,0,1-1.847,2.488" transform="translate(-78.227 -42.821)" fill="#fff"/>
    <path id="Path_97" data-name="Path 97" d="M121.486,1.034C121.57.143,120.962-.09,120.3.029s-1.434.473-1.315,1.331c.226,1.625-.514,1.53-1.749.8a1.319,1.319,0,0,0,2.017.9c.92-.385,2.218-.266,2.6-1.546.063-.212-.119-.413-.369-.479m-1.851.9a.492.492,0,0,1-.156-.745c.589-.886,1.288-.626,1.99-.152l0-.009.014.02-.017-.012a1.26,1.26,0,0,1-1.833.9" transform="translate(-76.582 0)" fill="#fff"/>
  </g>
</svg>
