<svg id="Group_68" data-name="Group 68" xmlns="http://www.w3.org/2000/svg" xmlns:xlink="http://www.w3.org/1999/xlink" width="111.913" height="13.741" viewBox="0 0 111.913 13.741">
  <defs>
    <clipPath id="clip-path">
      <rect id="Rectangle_80" data-name="Rectangle 80" width="111.913" height="13.741" fill="#fff"/>
    </clipPath>
  </defs>
  <g id="Group_67" data-name="Group 67" clip-path="url(#clip-path)">
    <path id="Path_214" data-name="Path 214" d="M150.038,13.741a1.854,1.854,0,0,1,.152-.184q5.528-5.2,11.058-10.4,1.6-1.508,3.211-3.013a.5.5,0,0,1,.308-.123c2.068-.007,4.136,0,6.2-.009.163,0,.224.047.263.209q1.513,6.342,3.039,12.68c.017.071.037.141.066.253.048-.1.081-.164.109-.229q2.642-6.347,5.279-12.7a.292.292,0,0,1,.32-.219q2.792.011,5.584,0a.288.288,0,0,1,.306.183c.65,1.32,1.312,2.635,1.961,3.956a.45.45,0,0,1,.012.324c-.524,1.359-1.059,2.714-1.59,4.069a.541.541,0,0,0-.044.257,1.282,1.282,0,0,0,.257-.129c1.118-.916,2.221-1.851,3.352-2.752,2.158-1.718,4.332-3.417,6.5-5.123.29-.228.576-.461.873-.68a.506.506,0,0,1,.279-.1q2.814-.008,5.628,0c.057,0,.113.009.2.016l-5.423,13.023.039.026q.5-.466,1-.932Q205.328,6.181,211.681.211a.676.676,0,0,1,.506-.2c2.024,0,4.047,0,6.071-.007h.278L221.8,13.7c-.094.005-.164.012-.235.012-.96,0-1.92,0-2.88,0-.169,0-.241-.042-.277-.22-.218-1.066-.455-2.129-.675-3.2-.033-.159-.1-.193-.248-.193-3.058,0-6.116,0-9.173.009a.484.484,0,0,0-.3.132q-1.7,1.647-3.387,3.309a.5.5,0,0,1-.388.158q-3.135-.007-6.271,0c-.095,0-.189.016-.284.024h-6.426a.876.876,0,0,1,.034-.169c.283-.687.56-1.376.856-2.058,1.094-2.523,2.021-5.118,3.254-7.582.005-.01,0-.026,0-.067-.069.066-.124.12-.181.172-.459.426-.9.881-1.383,1.272-2.07,1.662-4.156,3.3-6.236,4.955q-1.2.949-2.393,1.9a.48.48,0,0,1-.775-.184c-.6-1.368-1.221-2.726-1.793-4.105a20.55,20.55,0,0,1-1.561-3.988c-.137.385-.257.771-.41,1.143q-1.313,3.182-2.641,6.358c-.328.787-.664,1.571-1,2.356h-9.706a2.3,2.3,0,0,1-.072-.229c-.125-.6-.246-1.21-.369-1.815-.105-.516-.212-1.033-.318-1.545a1.062,1.062,0,0,0-.11-.014q-4.472,0-8.944,0a.4.4,0,0,0-.249.107q-1.821,1.742-3.632,3.493ZM216.047,2.4l-5.962,5.823h7.2L216.047,2.4M166.163,8.251l-1.05-5.579L159.3,8.251Z" transform="translate(-132.577 0)" fill="#fff"/>
    <path id="Path_215" data-name="Path 215" d="M0,13.837a2.146,2.146,0,0,1,.064-.209Q1.635,9.873,3.206,6.117a.264.264,0,0,1,.286-.2c.834.01,1.669,0,2.5,0,.064,0,.128.006.224.011L3.892,11.475c.407,0,.775,0,1.142,0,1.358-.02,2.717-.022,4.074-.073a7.934,7.934,0,0,0,2.689-.585,3.716,3.716,0,0,0,1.8-1.475,12.353,12.353,0,0,0,1.613-3.754,3.6,3.6,0,0,0,.053-1.247,2.078,2.078,0,0,0-1.359-1.691,5.266,5.266,0,0,0-2.118-.392c-2.223-.007-4.445,0-6.668,0H4.829L5.35.991c.1-.231.2-.46.282-.7A.246.246,0,0,1,5.907.109c1.078.007,2.156,0,3.234,0,2.444.007,4.889,0,7.332.034a8.772,8.772,0,0,1,3.49.711,3.558,3.558,0,0,1,2.218,2.547,4.907,4.907,0,0,1-.273,2.777,10.984,10.984,0,0,1-8.357,7.249,19.519,19.519,0,0,1-3.983.377c-.117,0-.234.019-.351.029Z" transform="translate(0 -0.096)" fill="#fff"/>
    <path id="Path_216" data-name="Path 216" d="M778.342,13.859c-.3-.015-.6-.032-.9-.044a13.714,13.714,0,0,1-3.586-.488,3.611,3.611,0,0,1-2.666-2.716,5.4,5.4,0,0,1,.229-3,10.218,10.218,0,0,1,5.465-6.126A14.34,14.34,0,0,1,783.124.146c3.323-.02,6.647-.009,9.97-.01.037,0,.073.005.151.011a1.126,1.126,0,0,1-.034.3c-.512,1.245-1.033,2.486-1.546,3.73a.248.248,0,0,1-.272.187c-.9-.009-1.8,0-2.739,0l.87-2.113a1.7,1.7,0,0,0-.181-.021c-1.315,0-2.63-.019-3.944.009a7.2,7.2,0,0,0-5.484,2.408,7.386,7.386,0,0,0-1.895,4.243,3.277,3.277,0,0,0,.085,1.025,1.817,1.817,0,0,0,1.341,1.255,7.029,7.029,0,0,0,2.3.435c2.119.044,4.238.048,6.357.068h.321l-.858,2.19Z" transform="translate(-681.332 -0.118)" fill="#fff"/>
  </g>
</svg>
