<svg id="Group_102" data-name="Group 102" xmlns="http://www.w3.org/2000/svg" xmlns:xlink="http://www.w3.org/1999/xlink" width="67.642" height="27.707" viewBox="0 0 67.642 27.707">
  <defs>
    <clipPath id="clip-path">
      <rect id="Rectangle_94" data-name="Rectangle 94" width="67.642" height="27.707" fill="#fff"/>
    </clipPath>
  </defs>
  <g id="Group_102-2" data-name="Group 102" clip-path="url(#clip-path)">
    <path id="Path_231" data-name="Path 231" d="M11.491,0C9.4,2.317,7.318,4.648,5.194,6.938c-.416.448-.363.7,0,1.1,2.171,2.41,4.321,4.839,6.595,7.394-.908,0-1.683.013-2.456-.008-.261-.007-.378-.272-.535-.446Q5.9,11.769,3.014,8.548a4.3,4.3,0,0,1-.289-.4l-.181.075v1.03c0,1.875-.011,3.75.008,5.625,0,.411-.061.581-.538.581C.5,15.454.5,15.478.5,13.989V0H2.521a1.181,1.181,0,0,1,.187.889c.006,1.557,0,3.114.006,4.671a1.155,1.155,0,0,0,.1.726C3.986,5.208,5,4,6.06,2.838,6.785,2.04,7.6,1.319,8.245.453A2.213,2.213,0,0,1,8.887,0Z" transform="translate(-0.423)" fill="#fff"/>
    <path id="Path_232" data-name="Path 232" d="M125.172,0l5.789,15.408c-2.207.129-2.2.126-2.912-1.838q-1.873-5.165-3.763-10.324c-.064-.174-.146-.342-.29-.676-.319.856-.591,1.573-.854,2.294-1.213,3.33-2.432,6.659-3.624,10a.731.731,0,0,1-.88.59c-.5-.05-1.007-.011-1.585-.011.825-2.2,1.627-4.352,2.435-6.5Q121.17,4.469,122.857,0Z" transform="translate(-100.069)" fill="#fff"/>
    <path id="Path_233" data-name="Path 233" d="M268.739,0c-.013.623.215,1.458-.1,1.813-.369.414-1.224.123-1.868.132q-2.167.029-4.335,0c-.407-.006-.537.114-.529.524.023,1.321.026,2.642,0,3.962-.009.43.152.508.538.5,1.806-.017,3.613.013,5.418-.021.519-.01.634.149.625.641-.025,1.323,0,1.323-1.319,1.323-1.565,0-3.131.016-4.7-.01-.442-.007-.573.116-.567.562.025,1.777-.008,3.555.022,5.331.009.508-.079.709-.655.694-1.434-.036-1.435,0-1.435-1.419q0-6.629,0-13.258a1.646,1.646,0,0,0-.066-.78Z" transform="translate(-222.077)" fill="#fff"/>
    <path id="Path_234" data-name="Path 234" d="M194.4,160.042c-1.277,0-2.553,0-3.83,0-.226,0-.494.074-.492-.326,0-.378.244-.347.486-.349.265,0,.532.018.794-.006s.682.16.8-.125a1.14,1.14,0,0,0-.268-1.074,1.283,1.283,0,0,0-1.093-.451c-.331,0-.481-.106-.449-.461.039-.433.344-.248.538-.235a1.8,1.8,0,0,1,1.941,1.8c.072.559.364.553.783.559.518.008.425-.332.428-.632,0-.432.007-.865,0-1.3,0-.243.1-.339.344-.341s.344.084.339.333c-.011.48,0,.961,0,1.441-.006.857.646.4,1,.472.559.11.3-.309.273-.538a1.462,1.462,0,0,1,1.636-1.824c.241,0,.482,0,.723,0,.2,0,.381,0,.375.294-.005.251-.045.421-.352.407-.288-.013-.578,0-.867,0a.734.734,0,0,0-.824.792.755.755,0,0,0,.812.879c.265.009.53.006.795.007s.548-.05.534.374c-.013.4-.3.3-.518.3-1.3.007-2.6,0-3.9,0" transform="translate(-162.501 -134.188)" fill="#fff"/>
    <path id="Path_235" data-name="Path 235" d="M378.8,150.279c.762,0,1.383-.009,2,0,.659.012.92.373.931,1.016.022,1.406.037,1.406-1.355,1.406-.963,0-1.927.027-2.888-.012-.454-.018-.684.1-.817.553a1.756,1.756,0,0,1-1.427,1.274c-.144.029-.367.116-.384-.16-.011-.179-.094-.446.142-.5,1.235-.3,1.179-1.293,1.237-2.222a10.912,10.912,0,0,0-.016-1.151c-.011-.251.094-.344.339-.333.218.01.383.056.363.323a.539.539,0,0,0,0,.072c.03.474-.119,1.143.134,1.375.344.315,1,.09,1.527.1.625.016,1.252-.009,1.877.009.357.01.588-.017.572-.484-.015-.436-.176-.607-.6-.6-.65.01-1.3-.022-1.949.011-.413.021-.5-.16-.458-.508a2.293,2.293,0,0,1,1.719-1.834,5.564,5.564,0,0,1,.836-.2c.225-.05.437-.082.441.263,0,.239-.013.387-.323.43a2.424,2.424,0,0,0-1.908,1.176" transform="translate(-320.452 -126.849)" fill="#fff"/>
    <path id="Path_236" data-name="Path 236" d="M6.728,150.174v.216c0,2.149,0,2.141-2.178,1.958-.311-.026-.42-.12-.408-.427.019-.48.012-.961,0-1.441,0-.216.1-.507-.309-.5-.346.007-.559.137-.568.5-.012.48-.022.961-.006,1.441.009.292-.053.444-.392.426-.552-.028-1.111.024-1.66-.031A1.472,1.472,0,0,1,.194,150.14c.074-.12.137-.2.269-.13a1.08,1.08,0,0,1,.339.245c.044.054,0,.18,0,.274-.022,1.012.46,1.367,1.5,1.137.225-.05.261-.161.26-.344,0-.24-.008-.481,0-.721a1.514,1.514,0,0,1,2.137-1.311c.183.081.15.219.152.353a9.481,9.481,0,0,1-.008,1.3c-.079.619.159.792.751.737.344-.032.452-.128.445-.466-.018-.912,0-1.825-.007-2.738,0-.272-.037-.524.384-.518s.313.272.316.491c.007.576,0,1.153,0,1.729" transform="translate(0 -126.486)" fill="#fff"/>
    <path id="Path_237" data-name="Path 237" d="M105.023,150.169c0,.577,0,1.154,0,1.731,0,.2.08.445-.286.447-.307,0-.425-.093-.421-.411q.02-1.8,0-3.605c0-.287.111-.367.383-.376.331-.011.328.181.326.412,0,.6,0,1.2,0,1.8" transform="translate(-89.178 -126.486)" fill="#fff"/>
    <path id="Path_238" data-name="Path 238" d="M178.961,150.142c0-.6.007-1.2,0-1.8,0-.254.04-.4.349-.392.293.008.364.134.362.4q-.012,1.8,0,3.605c0,.269-.079.385-.368.392-.315.008-.346-.15-.343-.4.009-.6,0-1.2,0-1.8" transform="translate(-152.991 -126.48)" fill="#fff"/>
    <path id="Path_239" data-name="Path 239" d="M355.462,150.157c0-.6,0-1.2,0-1.8,0-.239.012-.414.335-.4.281.008.378.107.375.384-.01,1.2-.008,2.4,0,3.605,0,.256-.055.4-.354.4s-.362-.122-.357-.385c.013-.6,0-1.2,0-1.8" transform="translate(-303.882 -126.483)" fill="#fff"/>
    <path id="Path_240" data-name="Path 240" d="M274.6,152.169c-.207-.08-.679.162-.683-.171a1.467,1.467,0,0,1,.4-1.153,1.271,1.271,0,0,1,1.023-.2c.148.015.139.165.143.285.006.216-.148.2-.291.207-.226.018-.555-.041-.537.294.013.236.307.249.522.254.179,0,.336.014.328.258-.009.259-.2.221-.358.226s-.335,0-.545,0" transform="translate(-234.17 -128.769)" fill="#fff"/>
    <path id="Path_241" data-name="Path 241" d="M8.083,183.36a.388.388,0,0,1-.382.361.327.327,0,0,1-.35-.366A.321.321,0,0,1,7.709,183a.379.379,0,0,1,.373.359" transform="translate(-6.284 -156.448)" fill="#fff"/>
    <path id="Path_242" data-name="Path 242" d="M15.034,183.33c-.044.2-.129.375-.361.38a.325.325,0,0,1-.359-.355.319.319,0,0,1,.339-.369.368.368,0,0,1,.381.344" transform="translate(-12.237 -156.436)" fill="#fff"/>
    <path id="Path_243" data-name="Path 243" d="M217.177,183.718a.332.332,0,0,1-.388-.332c-.014-.212.078-.374.319-.383a.345.345,0,0,1,.393.325.358.358,0,0,1-.325.391" transform="translate(-185.333 -156.449)" fill="#fff"/>
    <path id="Path_244" data-name="Path 244" d="M384.019,150.308a.318.318,0,0,1,.343-.357c.226,0,.37.111.364.334a.349.349,0,0,1-.342.38c-.221,0-.337-.142-.365-.357" transform="translate(-328.299 -128.193)" fill="#fff"/>
    <path id="Path_245" data-name="Path 245" d="M386.829,6.753a5.1,5.1,0,0,0-.552-2.635C385.1,1.915,383.5.248,380.827,0h-7.379c.008.263.022.527.022.79,0,4.657.009,9.314-.01,13.97,0,.505.075.709.652.694,1.876-.047,3.755.017,5.631-.043A7.214,7.214,0,0,0,386.6,9.934c.087-.333.025-.713.3-.988V8.8a11.306,11.306,0,0,1-.075-2.049m-5.291,6.329a5.33,5.33,0,0,1-2.048.363c-.988-.007-1.979-.047-2.964.014-.721.045-.988-.121-.953-.909.071-1.631.021-3.268.021-4.9,0-1.659.033-3.318-.017-4.975-.019-.629.187-.762.768-.733.962.048,1.928.011,2.892.013a5.351,5.351,0,0,1,5.616,5.265,5.722,5.722,0,0,1-3.315,5.866" transform="translate(-319.262)" fill="#fff"/>
    <path id="Path_246" data-name="Path 246" d="M277.488,151.8c-.035-1.128-.015-2.258-.009-3.387,0-.267-.012-.457-.372-.46-.4,0-.331.248-.331.478,0,.913-.034,1.828.011,2.738.027.536-.271.491-.623.5-.373.007-.665,0-.623-.516.039-.477.013-.96,0-1.441,0-.153.056-.328-.17-.418a3.376,3.376,0,0,0-2.323.438,1.717,1.717,0,0,0-.4,1.476c.038.567-.356.435-.673.458-.351.026-.587,0-.567-.475.037-.911.015-1.826.008-2.738,0-.215.1-.489-.31-.5s-.391.236-.39.513c0,.889-.039,1.78.016,2.666.037.587-.293.528-.666.534-.4.006-.693.009-.662-.554.05-.91.011-1.825.015-2.738,0-.23,0-.422-.326-.419-.3,0-.361.148-.357.4.008.624,0,1.249,0,1.874,0,1.43,0,1.43-1.428,1.429-1.225,0-1.243,0-1.232-1.211,0-.35-.233-.4-.435-.461-.242-.073-.227.2-.266.325a1.427,1.427,0,0,0,1.477,2.021c1.638.011,3.276,0,4.914,0,1.711,0,3.421-.012,5.131.008.418,0,.6-.074.585-.547m-3.4-.116c-.459-.04-.838.025-.772-.658.075-.772.292-1.012,1.033-1.056.8-.047.446.528.518.853.164.686-.1.919-.778.86" transform="translate(-226.786 -126.484)" fill="#fff"/>
    <path id="Path_247" data-name="Path 247" d="M58.205,148.41c0-.27-.019-.455-.375-.457-.4,0-.327.255-.327.481,0,.914-.025,1.828.009,2.741.017.45-.183.516-.554.492-.332-.021-.691.075-.644-.48a13.971,13.971,0,0,0,0-1.442c0-.154.065-.335-.135-.442a2.866,2.866,0,0,0-2.529.61,1.429,1.429,0,0,0-.222,1.034c.073.559-.127.719-.7.74-.684.024-.582-.362-.579-.765,0-.817.009-1.635,0-2.452,0-.2.139-.5-.288-.514-.4-.014-.413.2-.411.493.009,1.13.024,2.261-.007,3.39-.012.441.166.516.55.508.964-.021,1.928-.007,2.893-.007.94,0,1.881-.012,2.821.006.354.007.519-.07.51-.473-.025-1.154-.013-2.308-.006-3.462m-3.31,3.266c-.432-.059-.861.075-.8-.637.066-.823.238-1.021,1.017-1.067.83-.049.393.559.469.728.13.711.044,1.076-.681.976" transform="translate(-43.974 -126.485)" fill="#fff"/>
    <path id="Path_248" data-name="Path 248" d="M131.985,148.442c0-.234.056-.484-.336-.479s-.343.248-.343.488c0,.913-.027,1.827.008,2.738.024.62-.393.46-.725.48-.355.021-.661.035-.639-.5.037-.911.01-1.825.01-2.738,0-.24.042-.481-.344-.472s-.335.259-.336.494c0,.889-.04,1.78.012,2.666.037.639-.355.528-.735.552-.436.028-.68-.061-.634-.581.043-.476-.011-.959-.011-1.439,0-.212-.026-.33-.3-.371-1.858-.287-2.6.335-2.6,2.214a1.339,1.339,0,0,1,0,.216c-.08.483.075.675.609.648.937-.047,1.878-.013,2.817-.013,1.012,0,2.024-.02,3.035.009.418.012.529-.124.52-.528-.025-1.129-.008-2.258-.009-3.387m-5.524,3.25c-.4-.044-.81.083-.763-.589.058-.839.274-1.085,1.043-1.126.812-.043.412.556.525.857.154.709-.138.93-.8.858" transform="translate(-106.858 -126.494)" fill="#fff"/>
    <path id="Path_249" data-name="Path 249" d="M429.743,157.154c-.336-.008-.673-.021-1.009-.022-1.283,0-1.786.471-1.8,1.77,0,.457-.112.615-.6.625-.535.012-.5-.274-.5-.626.007-.287-.029-.576-.014-.863.017-.324-.133-.417-.431-.407-.357.012-.269.265-.271.464-.006.527.03,1.058-.013,1.582-.061.744-.243,1.446-1.125,1.633-.334.071-.242.316-.233.507.015.327.272.205.433.171a1.669,1.669,0,0,0,1.369-1.233c.133-.51.408-.591.875-.582,1.105.023,2.212-.01,3.318-.02l0-3m-1.31,2.37c-.377-.066-.9.188-.843-.572.056-.808.3-1.075,1.043-1.136.8-.065.473.493.529.829.106.592.034,1.012-.729.879" transform="translate(-362.252 -134.333)" fill="#fff"/>
  </g>
</svg>
