<svg xmlns="http://www.w3.org/2000/svg" width="44.904" height="37.857" viewBox="0 0 44.904 37.857">
  <g id="vgzixg.tif" transform="translate(-342.542 -143.816)">
    <g id="Group_1" data-name="Group 1" transform="translate(342.542 143.816)">
      <path id="Path_1" data-name="Path 1" d="M555.752,143.816c.536.549,1.069,1.1,1.609,1.648.632.638,1.265,1.275,1.907,1.9.143.14.177.216.013.378q-1.706,1.683-3.389,3.389c-.13.131-.2.166-.351.015q-1.7-1.717-3.416-3.412c-.18-.177-.094-.25.031-.375q1.649-1.641,3.292-3.289c.082-.082.156-.171.233-.256Z" transform="translate(-533.542 -143.816)" fill="#fff"/>
      <path id="Path_2" data-name="Path 2" d="M505.983,143.816c-.018.133-.139.179-.223.25q-1.711,1.47-3.429,2.931c-.094.08-.165.236-.341.083q-1.886-1.638-3.784-3.264Z" transform="translate(-484.474 -143.816)" fill="#fff"/>
      <path id="Path_3" data-name="Path 3" d="M607.641,143.816c-.844.8-1.762,1.52-2.636,2.288-.368.323-.748.632-1.114.957a.182.182,0,0,1-.29.006q-1.854-1.6-3.714-3.189c-.015-.013-.016-.041-.023-.062Z" transform="translate(-577.164 -143.816)" fill="#fff"/>
      <path id="Path_4" data-name="Path 4" d="M694.995,143.816a7.97,7.97,0,0,0,1.027,1.262.419.419,0,0,1,.012.606c-.064.1-.118.122-.22.048-.734-.528-1.471-1.052-2.219-1.586l.349-.33Z" transform="translate(-662.627 -143.816)" fill="#fff"/>
      <path id="Path_5" data-name="Path 5" d="M464.692,143.816l.347.33c-.748.534-1.484,1.058-2.219,1.585-.076.055-.155.085-.2-.02-.065-.165-.293-.3-.094-.521.331-.374.65-.76.97-1.144.057-.069.143-.124.143-.23Z" transform="translate(-451.871 -143.816)" fill="#fff"/>
      <path id="Path_6" data-name="Path 6" d="M342.6,451.406a.13.13,0,0,1-.057-.012v-1.121A3.262,3.262,0,0,1,342.6,451.406Z" transform="translate(-342.542 -423.24)" fill="#fff"/>
      <path id="Path_7" data-name="Path 7" d="M386.44,282.092a8.87,8.87,0,0,0-2.6-3.508,12.93,12.93,0,0,0-4.761-2.664,37.493,37.493,0,0,0-4.788-1.023,49.886,49.886,0,0,0-6.37-.578c-1.619-.039-3.242-.036-4.865.037-1.607.071-3.214.118-4.82.22q-1.833.116-3.657.32a.558.558,0,0,1-.642-.281c-.051-.091-.117-.175-.173-.263-1.285-1.99-2.628-3.942-3.914-5.931-.288-.446-.413-.476-.893-.246a10.263,10.263,0,0,0-1.408.85,11.145,11.145,0,0,0-4.357,5.295,7.619,7.619,0,0,0,.457,6.84,8.093,8.093,0,0,0,3.638,3.385,33.169,33.169,0,0,0,11.466,2.647c1.282.081,2.565.074,3.848.07.6,0,1.191.025,1.785-.02,1.011-.077,2.022-.166,3.035-.183a35.523,35.523,0,0,1,3.813.07,6.49,6.49,0,0,1,2.553.68,1.718,1.718,0,0,1,.6,2.69,3.266,3.266,0,0,1-1.46,1.046,9.543,9.543,0,0,1-3.556.677c-2.1.035-4.2.048-6.3-.114-1.583-.122-3.156-.3-4.72-.57a25.488,25.488,0,0,1-8.82-3.245,59.011,59.011,0,0,1-6.5-4.558c-.142-.114-.274-.269-.492-.184v.56a7.579,7.579,0,0,1,.035,1.145v2.52c-.019,2.077.061,4.152.035,6.229,0,.117,0,.233,0,.35.01.3.091.367.393.288a4.987,4.987,0,0,0,.561-.2c1.932-.764,3.871-1.509,5.8-2.273a.92.92,0,0,1,.77.013,27.67,27.67,0,0,0,3.459,1.238,34.588,34.588,0,0,0,9.993,1.513c2.648-.008,5.3,0,7.942-.107a33.484,33.484,0,0,0,4.2-.466,29.373,29.373,0,0,0,6.162-1.833,7.614,7.614,0,0,0,4.348-4.224,9.914,9.914,0,0,0,.664-2.955A6.944,6.944,0,0,0,386.44,282.092Zm-35.544.375c-.7,0-.72.015-.889-.666-.083-.333-.2-.469-.574-.45-.749.037-.745.013-.957.755-.035.121,0,.327-.178.344a4.374,4.374,0,0,1-.8-.011c-.083-.007-.038-.114-.019-.178.385-1.316.772-2.63,1.151-3.948a.189.189,0,0,1,.22-.163c.151.005.3,0,.454,0,.61,0,.61,0,.783.582.341,1.147.674,2.3,1.029,3.439C351.195,282.423,351.135,282.466,350.9,282.467Zm2.911.043c-.571.01-1.143-.01-1.713.007-.251.008-.347-.048-.337-.322.022-.617.007-1.235.007-1.853s.009-1.235,0-1.853c0-.22.044-.3.283-.3.654.008.655,0,.655.654,0,.862.007,1.725-.005,2.587,0,.219.061.28.275.27.372-.018.746,0,1.119-.009.191-.007.264.043.259.248C354.324,282.649,354.409,282.5,353.807,282.51Zm2.165-1.359c-.2-.014-.394,0-.592,0a2.627,2.627,0,0,0-.452,0c-.337.06-.377-.11-.364-.387.009-.186.039-.268.248-.259.382.017.767.019,1.149,0,.277-.014.226.164.22.318S356.257,281.172,355.972,281.151Zm3.455.348a1.4,1.4,0,0,1-1.454,1.065c-.058,0-.117,0-.175,0l0,.019c-.2-.023-.4-.032-.588-.073-.628-.134-.624-.149-.463-.768.053-.205.116-.2.282-.128a1.932,1.932,0,0,0,.921.161c.258-.024.495-.1.547-.4s-.137-.427-.36-.533c-.189-.089-.385-.163-.575-.251a1.239,1.239,0,0,1-.873-1.385,1.32,1.32,0,0,1,1.229-1.06,2.459,2.459,0,0,1,.767.012c.619.109.636.149.462.747-.055.189-.132.189-.29.127a1.439,1.439,0,0,0-.821-.1c-.206.041-.385.132-.417.363a.419.419,0,0,0,.288.435c.176.088.361.161.543.238C359.24,280.311,359.548,280.788,359.427,281.5Zm3.8,1.02c-.646,0-.646.008-.646-.635,0-.315-.011-.63,0-.944.009-.188-.058-.239-.238-.232-.361.013-.724.014-1.085,0-.187-.007-.239.055-.233.237.012.431-.007.863.008,1.294.007.207-.041.28-.265.281-.664,0-.664.014-.664-.649,0-1.12.006-2.239-.005-3.359,0-.232.04-.322.3-.317.632.014.623,0,.635.641.006.333-.152.776.068.967.19.164.621.054.946.057.53,0,.53,0,.53-.532v-.665c0-.46,0-.46.458-.46s.469,0,.469.484v1.679c0,.618-.008,1.236,0,1.854C363.52,282.436,363.47,282.52,363.23,282.518Zm4.283,0c-.691-.009-.72.011-.866-.646-.091-.407-.289-.49-.671-.471-.672.033-.7,0-.831.639-.077.389-.241.534-.622.475a3.437,3.437,0,0,0-.473,0c.409-1.408.806-2.769,1.2-4.13a.226.226,0,0,1,.244-.186c1.019-.065,1.019-.069,1.31.9.311,1.035.618,2.072.938,3.1C367.814,282.438,367.791,282.522,367.513,282.519Zm3.465-.551a1.257,1.257,0,0,0,0,.315c.022.193-.071.235-.244.233-.7-.007-1.4-.011-2.1,0-.212,0-.248-.08-.246-.266.009-.642,0-1.284,0-1.926s.006-1.261,0-1.891c0-.178.041-.236.23-.24.7-.014.7-.023.7.68,0,.852.007,1.7-.005,2.556,0,.22.063.282.277.272.373-.016.748.007,1.121-.009C370.919,281.685,371.008,281.748,370.977,281.967Zm3.675.545h-.2c-.372.123-.473-.133-.56-.482-.155-.624-.173-.619-.818-.619-.553,0-.552,0-.7.543a1.693,1.693,0,0,0-.063.236c-.028.254-.152.338-.415.33-.637-.019-.635,0-.457-.609.338-1.149.679-2.3,1-3.45.059-.21.148-.28.359-.264.312.023.7-.087.918.061.2.133.208.539.295.826q.458,1.52.91,3.041C375.047,282.511,375.047,282.511,374.652,282.512Zm5.248-3.055c-.232.938-.472,1.874-.692,2.815a.261.261,0,0,1-.3.244c-.78.02-.777.025-.91-.728a19.17,19.17,0,0,0-.465-2.112l-.306,1.472c-.076.365-.155.729-.226,1.1-.035.178-.092.274-.313.276-.773,0-.769.016-.942-.752-.241-1.068-.489-2.134-.733-3.2-.025-.111-.041-.225-.061-.335a.4.4,0,0,1,.081-.027c.872-.049.88-.051,1.037.8.146.786.273,1.576.42,2.435.205-1.038.4-2.006.581-2.978.038-.207.109-.263.312-.264.732,0,.739-.014.871.716.143.787.273,1.577.409,2.365l.04.009c.089-.511.176-1.022.269-1.532.079-.435.178-.868.244-1.305.031-.206.115-.27.316-.252s.418,0,.68,0C380.1,278.637,380,279.047,379.9,279.458Zm1.483,3.061c-.664,0-.664.012-.664-.644,0-1.117.008-2.234-.006-3.351,0-.251.045-.339.318-.33.611.02.612,0,.612.624v1.536c0,.628-.008,1.257,0,1.885C381.652,282.443,381.609,282.518,381.384,282.518Z" transform="translate(-342.542 -257.074)" fill="#fff"/>
      <path id="Path_8" data-name="Path 8" d="M734.062,266.366c.582-.985,1.145-1.934,1.7-2.886.062-.106.161-.119.263-.144q3.632-.875,7.263-1.756c.159-.039.22-.042.236.151q.269,3.347.555,6.692.162,1.934.325,3.868c.009.1.014.208.021.315-.135.014-.189-.094-.264-.155a52.7,52.7,0,0,0-7.155-5.184,9.108,9.108,0,0,0-1.709-.788A2.161,2.161,0,0,0,734.062,266.366Z" transform="translate(-699.524 -251.173)" fill="#fff"/>
      <path id="Path_9" data-name="Path 9" d="M549.091,237.971l-.421,2.153c-.306,1.566-.614,3.132-.914,4.7-.034.179-.1.267-.3.255s-.373,0-.56.006c-.644.01-.641.009-.746-.61q-.66-3.894-1.323-7.787c-.079-.466-.082-.466.4-.466,2.5,0,5,0,7.493-.006.315,0,.435.025.381.408-.379,2.689-.728,5.382-1.083,8.074-.029.222-.079.367-.358.332-.368-.045-.827.129-1.089-.076s-.189-.667-.259-1.018c-.387-1.942-.766-3.885-1.148-5.828-.009-.044-.021-.088-.032-.132Z" transform="translate(-526.951 -228.064)" fill="#fff"/>
      <path id="Path_10" data-name="Path 10" d="M455.354,237.906c.2,2.392.4,4.751.608,7.109.022.251-.027.335-.3.356-.872.067-.871.081-1.224-.726l-3.53-8.066c-.163-.371-.162-.373.223-.373,2.381,0,4.763.005,7.144-.007.3,0,.391.082.434.377q.594,4.1,1.226,8.2c.042.276,0,.389-.3.367a5.133,5.133,0,0,0-.595.014c-.6.025-.6.026-.833-.542q-1.331-3.192-2.664-6.384A.57.57,0,0,0,455.354,237.906Z" transform="translate(-441.257 -228.049)" fill="#fff"/>
      <path id="Path_11" data-name="Path 11" d="M640.664,235.784c-.4.994-.792,1.964-1.182,2.934-.8,1.977-1.6,3.953-2.377,5.935a.381.381,0,0,1-.478.293c-.761-.084-.778-.072-.729-.817.148-2.223.309-4.446.465-6.668a.572.572,0,0,0-.036-.286q-.428,1.082-.856,2.164c-.659,1.668-1.32,3.335-1.972,5.006-.084.214-.174.315-.43.279a6.541,6.541,0,0,0-1.048-.045c-.283.007-.354-.086-.308-.365.216-1.323.413-2.649.618-3.973.222-1.428.45-2.855.664-4.285.032-.212.1-.288.323-.285,2.381.038,4.763.064,7.145.094C640.516,235.767,640.571,235.775,640.664,235.784Z" transform="translate(-606.191 -227.569)" fill="#fff"/>
      <path id="Path_12" data-name="Path 12" d="M702.674,236.257a.676.676,0,0,1-.161.342q-2.629,4.391-5.26,8.781c-.142.239-.27.372-.57.271s-.743.031-.868-.21c-.09-.175.183-.541.3-.819,1.156-2.7,2.317-5.388,3.462-8.088a.46.46,0,0,1,.517-.332c.734.019,1.469,0,2.2.008A.6.6,0,0,1,702.674,236.257Z" transform="translate(-664.634 -228.05)" fill="#fff"/>
      <path id="Path_13" data-name="Path 13" d="M471.411,160.465c-.11.014-.124-.074-.152-.128-.712-1.35-1.419-2.7-2.132-4.053a.167.167,0,0,1,.061-.258q1.155-.822,2.3-1.654c.125-.091.2-.058.3.029q1.61,1.4,3.226,2.8c.124.107.149.167,0,.285-1.164.955-2.321,1.918-3.481,2.878C471.5,160.4,471.449,160.436,471.411,160.465Z" transform="translate(-457.927 -153.391)" fill="#fff"/>
      <path id="Path_14" data-name="Path 14" d="M657.1,156.356c-.039.078-.07.14-.1.2-.677,1.288-1.358,2.575-2.027,3.867-.11.212-.176.273-.391.092q-1.67-1.411-3.366-2.791c-.18-.148-.192-.225-.006-.384q1.57-1.34,3.118-2.706a.289.289,0,0,1,.441-.018c.7.521,1.417,1.024,2.127,1.535C656.976,156.21,657.079,156.25,657.1,156.356Z" transform="translate(-623.858 -153.579)" fill="#fff"/>
      <path id="Path_15" data-name="Path 15" d="M409.965,236.332c.085-.1.173-.072.25-.072.8,0,1.609,0,2.414,0,.173,0,.3.018.383.213q1.953,4.479,3.922,8.952a.811.811,0,0,1,.029.117c-.169.024-.331.038-.489.071a.531.531,0,0,1-.621-.292q-2.515-3.867-5.056-7.717Z" transform="translate(-404.017 -228.102)" fill="#fff"/>
      <path id="Path_16" data-name="Path 16" d="M726.57,169.259l4.39,5.293c-1.027,0-1.967,0-2.906,0-.133,0-.172-.089-.214-.191q-.769-1.854-1.545-3.705a.471.471,0,0,1-.017-.337C726.373,170,726.458,169.669,726.57,169.259Z" transform="translate(-692.405 -167.015)" fill="#fff"/>
      <path id="Path_17" data-name="Path 17" d="M407.394,174.586l4.389-5.29c.12.429.218.783.318,1.137a.441.441,0,0,1-.06.3q-.75,1.805-1.5,3.61c-.055.131-.1.248-.287.246C409.334,174.582,408.415,174.586,407.394,174.586Z" transform="translate(-401.673 -167.048)" fill="#fff"/>
      <path id="Path_18" data-name="Path 18" d="M564.963,492.463q.237-.859.474-1.717c.15-.54.158-.544.775-.427l-.893,2.111.071.037.638-1.089a5.84,5.84,0,0,0,.4-.7c.167-.405.452-.482.891-.363l-2.931,4.19-2.87-4.159c.445-.153.53-.123.743.239l1.059,1.8.078-.035-.872-2.035c.644-.119.665-.107.822.461.194.706.388,1.413.632,2.109l-.307-2.035a.877.877,0,0,1-.031-.242c.017-.118-.171-.326.123-.336.221-.007.478-.082.489.3a5.79,5.79,0,0,0,.142,1.071c.044-.369.107-.736.126-1.106.021-.409.315-.257.509-.256.263,0,.112.2.1.31-.071.555-.156,1.108-.236,1.661-.05.212.032.443-.051.57C564.877,492.76,564.846,492.585,564.963,492.463Z" transform="translate(-542.202 -459.693)" fill="#fff"/>
      <path id="Path_19" data-name="Path 19" d="M697.692,189.294c.389,1.165.751,2.253,1.118,3.339.048.141.02.189-.128.189-1.07,0-2.14,0-3.3,0Z" transform="translate(-664.256 -185.282)" fill="#fff"/>
      <path id="Path_20" data-name="Path 20" d="M454.057,192.875c-1.143,0-2.2,0-3.263,0-.141,0-.23-.023-.17-.2.37-1.088.737-2.177,1.124-3.323Z" transform="translate(-441.073 -185.337)" fill="#fff"/>
      <path id="Path_21" data-name="Path 21" d="M584.024,278.107c.311,1.638.614,3.248.925,4.857.04.209-.032.256-.23.255-.477,0-.955.009-1.432.025-.17.006-.266-.016-.227-.226q.456-2.4.9-4.8A.523.523,0,0,1,584.024,278.107Z" transform="translate(-561.834 -266.26)" fill="#fff"/>
      <path id="Path_22" data-name="Path 22" d="M504.314,202.318l3.38-2.531v.807c0,.513,0,1.026,0,1.54,0,.133.012.257-.187.256-1.056,0-2.112,0-3.169,0Z" transform="translate(-490.043 -194.85)" fill="#fff"/>
      <path id="Path_23" data-name="Path 23" d="M603.664,202.345l3.378-2.53c0,.564,0,1.069,0,1.573,0,.326.112.758-.052.95-.191.224-.637.067-.971.072-.776.012-1.553,0-2.33,0Z" transform="translate(-580.629 -194.875)" fill="#fff"/>
      <path id="Path_24" data-name="Path 24" d="M645.786,199.9l3.358,2.515-.017.077h-.818c-.745,0-1.489,0-2.234,0-.132,0-.292.043-.29-.187C645.788,201.524,645.786,200.749,645.786,199.9Z" transform="translate(-619.033 -194.949)" fill="#fff"/>
      <path id="Path_25" data-name="Path 25" d="M549.753,202.495q-1.567,0-3.135,0c-.126,0-.2-.041-.2-.18,0-.777,0-1.554,0-2.411l3.36,2.515Z" transform="translate(-528.436 -194.957)" fill="#fff"/>
      <path id="Path_26" data-name="Path 26" d="M508.8,284.621l2.047,4.733c-.522.033-1.005.059-1.487.1-.184.014-.2-.09-.214-.234q-.2-2.294-.4-4.587Z" transform="translate(-494.083 -272.2)" fill="#fff"/>
      <path id="Path_27" data-name="Path 27" d="M658.841,285.734q-.123,2.233-.245,4.466c-.008.149-.04.242-.223.22-.37-.043-.743-.07-1.114-.107-.1-.01-.231-.005-.166-.176l1.672-4.425Z" transform="translate(-629.329 -273.196)" fill="#fff"/>
      <path id="Path_28" data-name="Path 28" d="M603.211,391.22c.151.554.274,1.032.414,1.506.048.162.035.215-.155.223-.727.033-.726.041-.537-.659C603.021,391.958,603.106,391.625,603.211,391.22Z" transform="translate(-579.865 -369.395)" fill="#fff"/>
      <path id="Path_29" data-name="Path 29" d="M685.731,392.738c-.02.013-.028.024-.038.025-.884.11-.883.111-.662-.737.078-.3.147-.6.241-.984Z" transform="translate(-654.706 -369.234)" fill="#fff"/>
      <path id="Path_30" data-name="Path 30" d="M414.424,391.327l.43,1.558c0,.011.009.027,0,.034-.184.262-.45.07-.674.119-.162.036-.2-.053-.159-.2C414.155,392.362,414.277,391.885,414.424,391.327Z" transform="translate(-407.707 -369.493)" fill="#fff"/>
    </g>
  </g>
</svg>
