<svg id="Group_16" data-name="Group 16" xmlns="http://www.w3.org/2000/svg" xmlns:xlink="http://www.w3.org/1999/xlink" width="124.203" height="31.014" viewBox="0 0 124.203 31.014">
  <defs>
    <clipPath id="clip-path">
      <rect id="Rectangle_15" data-name="Rectangle 15" width="124.203" height="31.014" fill="#fff"/>
    </clipPath>
  </defs>
  <g id="Group_15" data-name="Group 15" clip-path="url(#clip-path)">
    <path id="Path_31" data-name="Path 31" d="M1473.381,28.8c-.335-.023-.751.066-.983-.1s-.255-.583-.366-.893q-3.9-10.893-7.79-21.786c-.043-.12-.087-.239-.145-.4l-.591.216c.4,1.128.793,2.222,1.185,3.316.689,1.926,1.384,3.85,2.062,5.78a.928.928,0,0,1,.021.57q-2.179,6.225-4.382,12.441c-.026.074-.063.145-.118.271-.4-1.1-.775-2.153-1.149-3.2a5.364,5.364,0,0,1-.534-1.664,5.358,5.358,0,0,1,.556-1.657q.822-2.216,1.649-4.429c.048-.129.085-.263.136-.423l-.572-.225-2.152,5.774c-.07-.171-.118-.279-.158-.391q-3.853-10.777-7.7-21.555a3.838,3.838,0,0,1-.1-.44h21.137Z" transform="translate(-1349.178)" fill="#fff"/>
    <path id="Path_32" data-name="Path 32" d="M1350.329,0c.647,1.828,1.289,3.657,1.941,5.483q4.1,11.477,8.2,22.953c.035.1.059.2.1.334-.14.009-.251.022-.362.022-.945,0-1.891-.014-2.837.009-.307.008-.42-.1-.517-.377q-2.644-7.389-5.308-14.771l-.662-1.839c-.076.016-.129.029-.183.038-.346.059-.413.216-.286.558q1.1,2.978,2.152,5.973a1.089,1.089,0,0,1,.007.67c-1.091,3.131-2.2,6.254-3.3,9.383-.091.26-.191.371-.487.365-1.111-.021-2.222-.008-3.333-.008h-.365l2.677-7.606-.593-.207c-.3.856-.6,1.684-.891,2.512-.583,1.652-1.172,3.3-1.741,4.959-.091.265-.205.386-.5.349a6.194,6.194,0,0,0-.732-.006v-.458q0-13.991,0-27.981c0-.118,0-.235-.007-.353Z" transform="translate(-1247.972)" fill="#fff"/>
    <path id="Path_33" data-name="Path 33" d="M1641.159,228.717l4.489,12.561h-.5c-.91,0-1.82-.01-2.73.007a.371.371,0,0,1-.422-.3q-1.193-3.375-2.414-6.739a1.47,1.47,0,0,1-.013-1.106c.5-1.342.962-2.7,1.439-4.054.033-.094.075-.186.148-.364" transform="translate(-1523.117 -212.485)" fill="#fff"/>
    <path id="Path_34" data-name="Path 34" d="M1441.623,286.259h-6.489l3.212-9.112,3.277,9.112" transform="translate(-1333.282 -257.478)" fill="#fff"/>
    <path id="Path_35" data-name="Path 35" d="M429.829,347.737l-.3.312a.829.829,0,0,0-1.049-.134c-.36.238-.387.616-.341,1.061.51,0,1.014.014,1.517-.006.281-.011.427.073.414.417h-.836c0,.508-.016.965.006,1.42a.47.47,0,0,0,.461.461,8.35,8.35,0,0,0,1.447-.02.95.95,0,0,0,.859-.97c.016-.187.031-.376.063-.561a1.6,1.6,0,0,1,1.767-1.463,1.654,1.654,0,0,1,1.633,1.594c.141,1.273.334,1.444,1.626,1.443.915,0,1.29-.371,1.3-1.287,0-.719.019-1.439-.007-2.158-.013-.362.159-.445.49-.442,0,.856,0,1.7,0,2.55,0,.989.35,1.336,1.345,1.336h4.336a6.608,6.608,0,0,0-.251-2.618,1.534,1.534,0,0,0-2.135-.687,8.388,8.388,0,0,0-.8.5l-.279-.324a2.494,2.494,0,0,1,2.669-.66,1.859,1.859,0,0,1,1.209,1.758c.076.662.081,1.333.119,2.024.586,0,1.176.037,1.76-.01.666-.054.99-.55.977-1.319a5.563,5.563,0,0,1,.071-1.121,1.431,1.431,0,0,1,1.536-1.27,1.449,1.449,0,0,1,1.537,1.193,3.626,3.626,0,0,1-.009,1.817,1.358,1.358,0,0,1-1.105,1.107,1.592,1.592,0,0,1-1.617-.471c-.045-.053-.092-.1-.155-.177a1.617,1.617,0,0,1-1.5.685c-2.151-.006-4.3-.01-6.454,0a1.627,1.627,0,0,1-1.477-.663,1.733,1.733,0,0,1-1.59.666,1.926,1.926,0,0,1-1.631-.576,1.654,1.654,0,0,1-1.725,1.227,1.554,1.554,0,0,1-1.583-1.114,1.835,1.835,0,0,1-1.487.457c-.283-.012-.567,0-.851,0a.924.924,0,0,1-1.038-1.021c-.012-.4-.009-.8-.015-1.2,0-.021-.019-.041-.03-.061a1.591,1.591,0,0,0-1.674.916,2.076,2.076,0,0,0,.308,2.3c.58.588,1.4.638,2.487.136.06.238.058.411-.206.541a2.32,2.32,0,0,1-3.048-.9,2.422,2.422,0,0,1,.863-3.186.593.593,0,0,0,.22-.341,6.419,6.419,0,0,1,.155-.787,1.233,1.233,0,0,1,2.022-.371m5.191,2.523a6.723,6.723,0,0,0-.179-.839,1.064,1.064,0,0,0-1.1-.728,1.02,1.02,0,0,0-1.086.784,5.045,5.045,0,0,0-.082,1.359,1.079,1.079,0,0,0,1.036,1.1,1.1,1.1,0,0,0,1.314-.984c.044-.206.059-.418.1-.689m15.6-.649a7.4,7.4,0,0,0-.164-.845.956.956,0,0,0-1.05-.752.983.983,0,0,0-1.012.765,2.967,2.967,0,0,0-.016,1.666,1.028,1.028,0,0,0,1.1.846,1.058,1.058,0,0,0,1.038-.929c.047-.229.066-.463.105-.752" transform="translate(-396.037 -322.702)" fill="#fff"/>
    <path id="Path_36" data-name="Path 36" d="M951.862,44.011v2.3c0,.578-.006,1.156,0,1.734.008.606.239.839.835.84q2.589.005,5.178,0c.623,0,.737-.138.827-.753a4.281,4.281,0,0,1,.311-1.183,1.8,1.8,0,0,1,1.679-1.047,7.853,7.853,0,0,1,1.091.08c.229.024.332.129.306.4-.051.538-.061,1.082-.063,1.624,0,.673.216.88.895.881q2.518,0,5.036,0c.656,0,.869-.213.863-.87-.011-1.246-.031-2.493-.048-3.812l.792-.212c.009.143.022.253.022.363q0,1.911,0,3.821a1.228,1.228,0,0,1-1.378,1.375c-1.844,0-3.688.013-5.532-.009a5.345,5.345,0,0,1-1.061-.238c-1.141,1.062-1.9,1.1-2.645.128a9.669,9.669,0,0,1-1.03.116c-1.773.011-3.546.005-5.32.005-.083,0-.166,0-.248,0a1.159,1.159,0,0,1-1.267-1.287c-.011-.707.012-1.416-.007-2.123-.015-.552-.054-1.105-.121-1.653-.027-.221.034-.3.229-.34s.411-.083.654-.132m9.418,4h.022c-.026-.421-.038-.843-.088-1.261a.4.4,0,0,0-.232-.282,1.077,1.077,0,0,0-1.343.68,2.311,2.311,0,0,0-.007,1.715.736.736,0,0,0,.869.542c.532-.113.778-.386.778-.864q0-.264,0-.528" transform="translate(-883.482 -40.864)" fill="#fff"/>
    <path id="Path_37" data-name="Path 37" d="M20.9,72.463l.9-.213c0,.172,0,.3,0,.425,0,.543-.009,1.085,0,1.627.014.609.228.834.8.835q3.174.007,6.348,0c.561,0,.791-.21.787-.764a14.162,14.162,0,0,0-.107-1.619c-.028-.233.03-.325.245-.363.2-.034.388-.082.612-.131,0,.867.044,1.7-.014,2.532A1.112,1.112,0,0,1,29.261,75.8c-2.317.013-4.634.015-6.951-.008-.287,0-.573-.251-.86-.253s-.543.225-.823.253a1.459,1.459,0,0,1-1.267-.583c-.6.709-1.166.778-2.089.247-.018.094-.031.18-.05.265a2.674,2.674,0,0,1-3.911,1.774,2.2,2.2,0,0,1-1.133-1.852c-.062-.628-.013-1.266-.013-1.928h.7a10.184,10.184,0,0,0,.008,1.111,6.552,6.552,0,0,0,.258,1.376,1.555,1.555,0,0,0,1.454,1.11,1.615,1.615,0,0,0,1.557-.914,3.215,3.215,0,0,0,.374-1.668c.009-.634,0-1.269,0-1.911l.744-.19c0,.6,0,1.174,0,1.744a.766.766,0,0,0,.989.718.67.67,0,0,0,.482-.7,9.613,9.613,0,0,0,0-1.131c-.027-.346.073-.538.44-.551a1.608,1.608,0,0,0,.282-.069,2.978,2.978,0,0,1,.035.309c0,.448,0,.9,0,1.344a.842.842,0,0,0,.818.829c.421.031.711-.209.722-.721.012-.561-.071-1.124-.112-1.687-.005-.068-.013-.137-.023-.248" transform="translate(-11.283 -67.122)" fill="#fff"/>
    <path id="Path_38" data-name="Path 38" d="M171.66,324.122a9.76,9.76,0,0,1,1.526.014,2.1,2.1,0,0,1,1.716,2.022c.023.432,0,.867,0,1.324a14.649,14.649,0,0,0,1.6-.012c.6-.068.879-.46.89-1.126.013-.754.022-1.51,0-2.264-.012-.346.126-.466.491-.464,0,.363,0,.722,0,1.081,0,.566-.008,1.132,0,1.7a1.029,1.029,0,0,0,1.109,1.108c.213.006.426.011.638,0,.731-.044,1.119-.572,1.079-1.374a4.482,4.482,0,0,1,.1-1.187,1.412,1.412,0,0,1,1.513-1.167,1.441,1.441,0,0,1,1.526,1.158,3.623,3.623,0,0,1,0,1.85,1.346,1.346,0,0,1-1.069,1.1,1.607,1.607,0,0,1-1.652-.459c-.047-.053-.089-.109-.15-.183a1.725,1.725,0,0,1-1.629.694,1.761,1.761,0,0,1-1.691-.671,1.786,1.786,0,0,1-1.695.669c-2.293-.013-4.586,0-6.88-.005-.777,0-1.115-.338-1.116-1.125,0-1.521.01-3.043-.009-4.564,0-.344.125-.468.491-.469v.364q0,2.264,0,4.528c0,.667.177.844.833.844h5.186a12.776,12.776,0,0,0-.179-1.7,1.735,1.735,0,0,0-2.274-1.237,9.783,9.783,0,0,0-1.339.536l-.234-.281,1.418-1.583c.347-.386.712-.758,1.035-1.163a.74.74,0,0,1,.883-.282l-2.116,2.328m11.843,1.856c-.035-.331-.053-.553-.086-.774a1.41,1.41,0,0,0-.088-.3.986.986,0,0,0-1.008-.674.956.956,0,0,0-1.008.672,2.826,2.826,0,0,0,.007,1.932,1,1,0,0,0,.98.673.958.958,0,0,0,1-.64,6.53,6.53,0,0,0,.208-.886" transform="translate(-156.037 -298.914)" fill="#fff"/>
    <path id="Path_39" data-name="Path 39" d="M751.975,66.47h-13.9c-.066-.545.016-.647.513-.647h1.933A5.486,5.486,0,0,0,740.409,64c-.179-.5-.4-.585-1-.418-.007-.008-.019-.016-.02-.024-.026-.765.011-.916.823-.571a1.857,1.857,0,0,1,1.068,1.743c.024.349,0,.7,0,1.066h9.676a6.654,6.654,0,0,0-1.753-2.732.663.663,0,0,0-.837-.17c-.3.2-.274.519-.207.831.019.089.04.178.07.31l-.7.1a1.7,1.7,0,0,1,1.192-1.9,1.242,1.242,0,0,1,1.059.286,6.566,6.566,0,0,1,2.2,3.577.818.818,0,0,1,.01.211,1.085,1.085,0,0,1-.025.149" transform="translate(-685.679 -57.806)" fill="#fff"/>
    <path id="Path_40" data-name="Path 40" d="M1603.028,311.957l2.375,6.639h-4.714l2.338-6.639" transform="translate(-1487.088 -289.817)" fill="#fff"/>
    <path id="Path_41" data-name="Path 41" d="M570.995,55.85c.02-.52.02-.52.914-.644.006.126.017.249.018.372,0,.966,0,1.932,0,2.9,0,.608.22.826.836.827q2.6,0,5.209,0c.624,0,.858-.225.844-.857-.014-.6-.072-1.192-.113-1.822l.858-.2c0,.867.052,1.692-.016,2.507a1.1,1.1,0,0,1-1.218,1.037c-1.972.015-3.945.021-5.917-.011a3.639,3.639,0,0,1-.978-.343.837.837,0,0,0-.367-.045c-.161.022-.313.107-.474.134-1.337.23-2.193-.7-1.966-2.123a1.865,1.865,0,0,1,1.864-1.692l.505-.035m.141.561c-.891-.1-1.462.184-1.641.83a2.6,2.6,0,0,0-.036,1.008,1.014,1.014,0,0,0,1.574.7.313.313,0,0,0,.1-.231c.007-.764,0-1.529,0-2.309" transform="translate(-528.236 -51.288)" fill="#fff"/>
    <path id="Path_42" data-name="Path 42" d="M8.033,327.194a1.592,1.592,0,0,1-1.46.686c-.543,0-1.085,0-1.632,0a.449.449,0,0,0-.044.1c-.14,1.109-.495,1.525-1.6,1.678a5.139,5.139,0,0,1-1.649-.045,2.009,2.009,0,0,1-1.552-1.847c-.03-.15-.043-.3-.073-.453-.063-.311.029-.5.415-.5.04.307.061.633.127.948a1.656,1.656,0,0,0,1.773,1.482,8.366,8.366,0,0,0,.85-.017,1.179,1.179,0,0,0,1.22-1.309c0-1.886,0-3.772,0-5.658v-.424l.468-.135v5.7c.737,0,1.442.047,2.137-.017.462-.042.712-.467.734-.991.017-.4,0-.8.06-1.2a1.474,1.474,0,0,1,1.552-1.463,1.455,1.455,0,0,1,1.592,1.415,5.319,5.319,0,0,1-.057,1.611,1.269,1.269,0,0,1-1.074,1.085,1.611,1.611,0,0,1-1.622-.45c-.047-.053-.09-.108-.162-.194m2.533-1.353-.032-.009c-.014-.2-.018-.4-.047-.6a1.779,1.779,0,0,0-.118-.405.953.953,0,0,0-.991-.648.954.954,0,0,0-1,.645,2.83,2.83,0,0,0-.012,1.938.983.983,0,0,0,1,.693.962.962,0,0,0,1-.691,7.436,7.436,0,0,0,.192-.925" transform="translate(0 -298.868)" fill="#fff"/>
    <path id="Path_43" data-name="Path 43" d="M346.389,72.5l.841-.2c0,.88.054,1.727-.018,2.563a1.068,1.068,0,0,1-1.194.976c-2.457.014-4.914.007-7.37,0a4.311,4.311,0,0,1-.483-.057,2.247,2.247,0,0,1-1.845,2.041l-.237-.382a1.666,1.666,0,0,1,.206-.13,1.769,1.769,0,0,0,1.124-1.794c-.02-.881-.082-1.761-.125-2.641-.006-.116,0-.233,0-.383l.888-.2c0,.192,0,.33,0,.468,0,.519-.008,1.037,0,1.555.013.671.21.862.874.863q3.278,0,6.555,0c.694,0,.907-.207.891-.914-.014-.574-.069-1.146-.109-1.764" transform="translate(-312.231 -67.16)" fill="#fff"/>
    <path id="Path_44" data-name="Path 44" d="M153.115,186.542h-1.342c.451-.263.292-.567.254-.849q-.185-1.382-.376-2.763a2.088,2.088,0,0,0-.088-.282l-1.719,3.938-.119,0-1.706-3.877-.07,0c-.064.449-.131.9-.193,1.348-.082.594-.173,1.188-.234,1.784a3.769,3.769,0,0,0,.058.684h-.83a1.687,1.687,0,0,0,.331-.362,1.81,1.81,0,0,0,.084-.483c.173-1.2.35-2.4.516-3.6.053-.383-.25-.509-.537-.674a1.953,1.953,0,0,1,.971-.068c.1.01.212.217.273.355.5,1.13.985,2.265,1.476,3.4.027.063.059.124.119.248.29-.664.559-1.278.825-1.892.253-.583.526-1.158.746-1.753a.488.488,0,0,1,.6-.38,3.489,3.489,0,0,0,.471,0,.6.6,0,0,1,.012.118c-.426.163-.4.494-.343.857.178,1.21.331,2.424.519,3.633a2.355,2.355,0,0,0,.3.608" transform="translate(-136.335 -168.445)" fill="#fff"/>
    <path id="Path_45" data-name="Path 45" d="M875.852,181.626c.038-.02.077-.057.115-.056,1.086.015,2.174-.007,3.256.065a2.229,2.229,0,0,1,2.117,1.555,2.727,2.727,0,0,1-.6,2.764,2.318,2.318,0,0,1-1.836.841q-1.364.013-2.728.02a.972.972,0,0,1-.352-.07c.476-.2.354-.6.356-.937.005-1.167,0-2.334,0-3.5,0-.272.034-.548-.336-.68m1.132.208a.505.505,0,0,0-.036.118c0,1.295-.007,2.589,0,3.884a.584.584,0,0,0,.524.612,3.524,3.524,0,0,0,2.016-.133,1.8,1.8,0,0,0,.617-.395,2.337,2.337,0,0,0-.671-3.747,5.053,5.053,0,0,0-2.449-.339" transform="translate(-813.67 -168.684)" fill="#fff"/>
    <path id="Path_46" data-name="Path 46" d="M344.458,186.781c.432-.2.351-.57.351-.9,0-1.083.014-2.167-.007-3.249-.007-.346.225-.806-.457-.944.151-.072.189-.106.226-.105,1.084.014,2.172-.009,3.252.061a2.232,2.232,0,0,1,2.122,1.546,2.743,2.743,0,0,1-.627,2.816,2.2,2.2,0,0,1-1.641.79c-.99.028-1.982.024-2.973.029a1.293,1.293,0,0,1-.247-.047m1.119-4.935c0,1.406-.006,2.768,0,4.13,0,.289.224.43.485.484a3.43,3.43,0,0,0,2.082-.152,1.849,1.849,0,0,0,.69-.527,2.342,2.342,0,0,0-1.081-3.716,5.976,5.976,0,0,0-2.181-.219" transform="translate(-319.907 -168.698)" fill="#fff"/>
    <path id="Path_47" data-name="Path 47" d="M651.139,184.072c.349.507.67,1,1.019,1.475.448.608.912,1.214,1.835.639l.03.118a1.047,1.047,0,0,1-.2.249,1.518,1.518,0,0,1-2.009-.3,10.747,10.747,0,0,1-1.02-1.44.827.827,0,0,0-1.111-.454c0,.618-.018,1.251.013,1.882.007.142.184.276.3.446H648.52c.655-.317.395-.844.411-1.278.033-.894.026-1.791,0-2.687-.011-.405.21-.9-.378-1.149l.052-.083h.469c.508,0,1.016,0,1.524.006a1.274,1.274,0,0,1,1.328.739,1.478,1.478,0,0,1-.5,1.615c-.08.068-.166.13-.285.224m-1.451-2.3v2.236c.551.012,1.106.093,1.458-.434a1.146,1.146,0,0,0-.039-1.267c-.316-.565-.856-.539-1.419-.536" transform="translate(-602.494 -168.607)" fill="#fff"/>
    <path id="Path_48" data-name="Path 48" d="M543.218,181.985h1.435c-.508.27-.333.731-.338,1.116-.015,1.084-.008,2.168,0,3.252,0,.3-.081.64.431.7l-.084.092h-1.4c.454-.229.311-.636.32-.985.01-.412.013-.825-.006-1.237,0-.093-.112-.258-.175-.26-.811-.018-1.622-.012-2.472-.012,0,.723-.018,1.4.015,2.082.006.132.21.255.358.421h-1.447c.5-.247.336-.687.34-1.055.011-1.072.005-2.144,0-3.216,0-.327.071-.689-.35-.89h1.429l.077.08c-.549.094-.425.475-.428.8,0,.48,0,.961,0,1.464h2.643c0-.653.014-1.307-.013-1.96,0-.116-.186-.224-.337-.393" transform="translate(-501.536 -169.069)" fill="#fff"/>
    <path id="Path_49" data-name="Path 49" d="M807.243,330.282c.1-.047.2-.133.3-.134,1.087-.01,2.174-.007,3.261-.006q3.988.006,7.976.013c1.773,0,3.545,0,5.317,0,2.634.007,5.269.014,7.9.039a.728.728,0,0,0,.667-.347c1.18-1.605,2.374-3.2,3.571-4.809.194.046.268.112.124.3-1.236,1.652-2.462,3.311-3.708,4.956a.642.642,0,0,1-.459.161c-3.391,0-6.781-.018-10.172-.024q-7.2-.014-14.392-.02h-.316l-.073-.135" transform="translate(-749.953 -301.972)" fill="#fff"/>
    <path id="Path_50" data-name="Path 50" d="M1021.288,181.441c.315,0,.632-.019.945.01.107.01.216.128.3.218,1.143,1.207,2.281,2.417,3.47,3.679.012-.15.027-.244.027-.338,0-.943,0-1.886,0-2.828,0-.275.034-.554-.364-.65a2.421,2.421,0,0,1,1.141-.035c-.574.248-.4.738-.409,1.148-.014,1.226-.005,2.451-.005,3.677v.385l-.085.055-3.943-4.179c-.015.127-.033.209-.033.291,0,.919-.008,1.839,0,2.758,0,.357-.15.78.338,1.018H1021.6a.445.445,0,0,1,0-.078c.42-.1.373-.434.372-.748,0-1.037,0-2.074,0-3.111a4.35,4.35,0,0,0-.05-.6.476.476,0,0,0-.474-.476.561.561,0,0,1-.181-.082l.033-.116" transform="translate(-948.776 -168.558)" fill="#fff"/>
    <path id="Path_51" data-name="Path 51" d="M1194.039,185.832c0,.272.008.525-.01.776,0,.033-.135.081-.207.082q-1.612.007-3.224,0a1.16,1.16,0,0,1-.269-.1c.55-.133.436-.505.436-.825,0-1.2,0-2.4,0-3.606,0-.273,0-.518-.354-.648a1.034,1.034,0,0,1,.251-.066c.945,0,1.89,0,2.835-.007.219,0,.3.079.286.289-.014.185-.02.371-.034.641-.121-.105-.179-.13-.183-.162-.053-.435-.352-.451-.7-.437-.434.017-.87,0-1.331,0v2.133a5.748,5.748,0,0,0,1.918-.157v.6c-.644-.309-1.277-.088-1.926-.175,0,.649-.014,1.257.013,1.864a.411.411,0,0,0,.28.285,11.052,11.052,0,0,0,1.657,0c.171-.017.317-.274.552-.493" transform="translate(-1105.851 -168.562)" fill="#fff"/>
    <path id="Path_52" data-name="Path 52" d="M729.758,182.107h3.321v.858c-.1-.094-.184-.131-.19-.178-.045-.357-.272-.409-.58-.4-.47.018-.941,0-1.436,0v2.125a5.559,5.559,0,0,0,1.917-.147v.6a5.745,5.745,0,0,0-1.924-.169c0,.642-.018,1.24.016,1.835a.472.472,0,0,0,.328.32,8.931,8.931,0,0,0,1.588-.008c.183-.021.339-.28.54-.458a.915.915,0,0,1,.025.71c-.015.065-.257.108-.4.11-.945.009-1.891.006-2.836,0a1.394,1.394,0,0,1-.4-.061c.578-.254.352-.735.36-1.123.022-1.108.01-2.216.007-3.324,0-.261.095-.583-.431-.568l.094-.131" transform="translate(-677.879 -169.183)" fill="#fff"/>
    <path id="Path_53" data-name="Path 53" d="M964.8,182.313c0-.608-.392-.555-.767-.547-.411.008-.823,0-1.258,0V183.9a5.964,5.964,0,0,0,1.9-.149v.509h-1.916c0,.558-.014,1.176.014,1.793a.414.414,0,0,0,.3.273,10.162,10.162,0,0,0,1.622,0c.182-.019.339-.279.531-.45a.9.9,0,0,1,.025.713c-.015.065-.282.1-.434.1-.933.009-1.866.005-2.8,0a1.338,1.338,0,0,1-.4-.063c.567-.227.354-.686.36-1.053.018-1.13.008-2.261.005-3.392,0-.26.1-.583-.43-.564l.081-.112a1.1,1.1,0,0,1,.254-.063c.945,0,1.889,0,2.834-.007.219,0,.3.074.284.285-.018.189-.033.378-.049.568l-.157.027" transform="translate(-893.315 -168.556)" fill="#fff"/>
    <path id="Path_54" data-name="Path 54" d="M15.617,185.828H14.349c.271-.266.074-.493-.019-.726-.351-.879-.353-.881-1.27-.877-.34,0-.761-.1-1,.061s-.306.584-.419.9a4.523,4.523,0,0,0-.127.655h-.861c.678-.408.717-1.067.962-1.612.255-.568.47-1.154.7-1.733s.446-1.137.68-1.7a1.012,1.012,0,0,1,.211-.241,1.19,1.19,0,0,1,.176.238c.574,1.4,1.133,2.813,1.719,4.211a5.8,5.8,0,0,0,.515.821M12.151,183.9h1.7l-.857-2.117-.839,2.117" transform="translate(-9.898 -167.744)" fill="#fff"/>
    <path id="Path_55" data-name="Path 55" d="M463.22,185.837H462.4a6.063,6.063,0,0,0,1.2-2.391c.371-.811.666-1.657.994-2.487a1.179,1.179,0,0,1,.1-.226,1.483,1.483,0,0,1,.177-.188c.06.064.144.117.175.193.292.705.576,1.414.862,2.122.308.763.6,1.532.93,2.285a3.832,3.832,0,0,0,.486.665h-1.267c.265-.366-.043-.657-.155-.971-.227-.632-.241-.627-.906-.627-.331,0-.662.012-.992,0-.217-.01-.35.041-.418.269-.085.28-.223.544-.311.823a2.907,2.907,0,0,0-.056.538m2.31-1.936-.862-2.126-.841,2.126Z" transform="translate(-429.586 -167.732)" fill="#fff"/>
    <path id="Path_56" data-name="Path 56" d="M245.97,185.826h-1.178a4.916,4.916,0,0,0-.133-.685c-.107-.309-.176-.719-.405-.872s-.637-.055-.967-.056c-.951,0-.956,0-1.313.912a5.385,5.385,0,0,0-.167.7h-.74c.509-.273.535-.8.71-1.224.516-1.25,1-2.512,1.507-3.766a1.365,1.365,0,0,1,.218-.287,1.409,1.409,0,0,1,.216.288c.585,1.437,1.154,2.881,1.751,4.314a3.661,3.661,0,0,0,.5.679M243.3,181.77l-.841,2.129h1.7l-.856-2.129" transform="translate(-223.958 -167.732)" fill="#fff"/>
    <path id="Path_57" data-name="Path 57" d="M302.849,188.2c1.011-.178,1.2-.379,1.211-1.389.011-1.531.005-3.063.005-4.594,0-.289.062-.616-.4-.634a2.5,2.5,0,0,1,1.572-.06c-.617.187-.4.663-.41,1.041-.029,1.519-.012,3.038-.057,4.556a1.219,1.219,0,0,1-1.61,1.23,1.371,1.371,0,0,1-.307-.15" transform="translate(-281.356 -168.548)" fill="#fff"/>
    <path id="Path_58" data-name="Path 58" d="M1113.882,181.376a2.2,2.2,0,0,1-.3-.177,2.382,2.382,0,0,0-2.261-.458,2,2,0,0,0-1.494,2.124,2.66,2.66,0,0,0,2.066,2.55,2.843,2.843,0,0,0,2.318-.493.438.438,0,0,1,.242-.089c-.126.358-.253.671-.7.756a7.422,7.422,0,0,1-2.425.1,2.6,2.6,0,0,1-1.554-4.262,3.211,3.211,0,0,1,3.835-.755c.177.083.247.393.367.6l-.1.1" transform="translate(-1030.461 -167.551)" fill="#fff"/>
    <path id="Path_59" data-name="Path 59" d="M791.168,184.162c.018.1.036.2.053.305.108.668.323.892,1.008.968a2.742,2.742,0,0,0,.807-.039.971.971,0,0,0,.752-.84.845.845,0,0,0-.566-.853c-.375-.17-.769-.3-1.148-.458a1.359,1.359,0,0,1-.9-1.413,1.406,1.406,0,0,1,1.316-1.37,3.283,3.283,0,0,1,.567.006c.637.064.763.195.875.954a2.831,2.831,0,0,1-.319-.234,1.321,1.321,0,0,0-1.293-.385.915.915,0,0,0-.727.808.739.739,0,0,0,.548.841c.39.164.8.281,1.186.457a1.467,1.467,0,0,1,.372,2.5,1.708,1.708,0,0,1-.867.331,12.4,12.4,0,0,1-1.557.033c-.09,0-.255-.093-.257-.149-.019-.459-.009-.919,0-1.378,0-.042.038-.084.058-.126l.1.044" transform="translate(-734.864 -167.647)" fill="#fff"/>
    <path id="Path_60" data-name="Path 60" d="M92.15,185.908a2.412,2.412,0,0,1,.047.312,7.265,7.265,0,0,1-.007.812c-.007.084-.118.228-.182.228-1.133.011-2.265,0-3.4,0-.026,0-.052-.035-.13-.091.589-.158.405-.607.41-.97q.019-1.554,0-3.108c0-.36.174-.808-.358-1.028h1.464a.434.434,0,0,1,0,.076c-.414.092-.354.413-.353.712,0,1.107,0,2.214,0,3.32,0,.531.138.7.668.756a5.337,5.337,0,0,0,.953.017c.444-.032.586-.184.675-.628.027-.133.055-.266.082-.4l.126-.007" transform="translate(-82.201 -169.14)" fill="#fff"/>
    <path id="Path_61" data-name="Path 61" d="M287.622,67.344c-.034-.746-.016-1.454-.114-2.146-.091-.638-.419-.78-1.1-.582l.079-.732a1.347,1.347,0,0,1,1.194.377,1.816,1.816,0,0,1,.626,1.233c.063.818.069,1.639.1,2.485h-3.335c.028-.147.053-.259.069-.372.028-.194.123-.273.332-.268.567.014,1.134,0,1.7,0h.452" transform="translate(-264.837 -59.327)" fill="#fff"/>
    <path id="Path_62" data-name="Path 62" d="M497.122,77.6c.1-.053.183-.1.265-.135a1.713,1.713,0,0,0,1.053-1.657c-.013-.927-.08-1.854-.123-2.781,0-.1,0-.21,0-.348l.823-.194c.038.05.064.068.064.086-.015,1.2.021,2.4-.067,3.6a2.032,2.032,0,0,1-1.552,1.781c-.339.117-.346-.155-.463-.348" transform="translate(-461.841 -67.34)" fill="#fff"/>
    <path id="Path_63" data-name="Path 63" d="M1229.341,44.444l.922-.071c0,.18,0,.34,0,.5-.017,1.552-.04,3.1-.045,4.655,0,.281-.06.4-.368.387-.28-.009-.428-.04-.422-.38.019-1.223.016-2.446,0-3.67,0-.456-.056-.911-.09-1.421" transform="translate(-1142.094 -41.224)" fill="#fff"/>
    <path id="Path_64" data-name="Path 64" d="M844.5,182.235h1.484c-.494.159-.379.548-.38.881q0,1.642,0,3.285c0,.613,0,.613.424.989H844.5c.485-.2.346-.6.348-.931.006-1.2,0-2.4,0-3.6,0-.264-.009-.5-.387-.508l.032-.112" transform="translate(-784.534 -169.302)" fill="#fff"/>
    <path id="Path_65" data-name="Path 65" d="M434.132,182.226H435.6a.471.471,0,0,1,0,.084c-.374.068-.363.343-.361.632.007,1.178,0,2.355,0,3.533,0,.333-.115.72.363.9h-1.468c.523-.211.345-.648.348-1,.012-1.119.006-2.237,0-3.356,0-.3.094-.655-.414-.718l.057-.08" transform="translate(-403.269 -169.293)" fill="#fff"/>
    <path id="Path_66" data-name="Path 66" d="M1178.568,330.385c-.222-.048-.243-.148-.114-.32q1.835-2.447,3.67-4.895c.054-.071.18-.088.272-.131l.076.117-3.9,5.228" transform="translate(-1094.745 -301.972)" fill="#fff"/>
    <path id="Path_67" data-name="Path 67" d="M684.467,136.454a.456.456,0,0,1-.5.5.467.467,0,0,1-.5-.505.46.46,0,0,1,.48-.525.512.512,0,0,1,.527.532" transform="translate(-634.955 -126.275)" fill="#fff"/>
    <path id="Path_68" data-name="Path 68" d="M452.6,136.445a.457.457,0,0,1-.5.507.466.466,0,0,1-.511-.5.461.461,0,0,1,.471-.533.511.511,0,0,1,.536.523" transform="translate(-419.543 -126.276)" fill="#fff"/>
    <path id="Path_69" data-name="Path 69" d="M581.585,34.681a.466.466,0,0,1-.53-.509.46.46,0,0,1,.511-.5.515.515,0,0,1,.522.507.453.453,0,0,1-.5.5" transform="translate(-539.817 -31.286)" fill="#fff"/>
    <path id="Path_70" data-name="Path 70" d="M471.082,136.953a.466.466,0,0,1-.5-.511.46.46,0,0,1,.49-.519.515.515,0,0,1,.516.517.476.476,0,0,1-.5.513" transform="translate(-437.183 -126.277)" fill="#fff"/>
    <path id="Path_71" data-name="Path 71" d="M703.454,136.436a.476.476,0,0,1-.5.517.515.515,0,0,1-.019-1.03.516.516,0,0,1,.52.513" transform="translate(-652.595 -126.276)" fill="#fff"/>
    <path id="Path_72" data-name="Path 72" d="M249.744,38.029a.441.441,0,0,1-.5-.493.482.482,0,0,1,.51-.5.542.542,0,0,1,.509.526c.006.3-.182.475-.52.471" transform="translate(-231.557 -34.403)" fill="#fff"/>
    <path id="Path_73" data-name="Path 73" d="M600.542,34.69a.5.5,0,1,1,.01-1,.517.517,0,0,1,.508.522.452.452,0,0,1-.518.482" transform="translate(-557.458 -31.295)" fill="#fff"/>
    <path id="Path_74" data-name="Path 74" d="M892.888,136.938a.468.468,0,0,1-.489-.521.456.456,0,0,1,.48-.493.518.518,0,0,1,.517.549.459.459,0,0,1-.507.465" transform="translate(-829.065 -126.278)" fill="#fff"/>
    <path id="Path_75" data-name="Path 75" d="M353.384,38.026c-.341,0-.494-.162-.486-.5a.461.461,0,0,1,.48-.5.51.51,0,0,1,.509.551c-.007.311-.165.45-.5.446" transform="translate(-327.853 -34.401)" fill="#fff"/>
    <path id="Path_76" data-name="Path 76" d="M292.988,322.026c-.121.086-.26.256-.36.236a.485.485,0,0,1-.305-.325c-.016-.082.171-.278.283-.291s.251.131.377.207q0,.087.005.174" transform="translate(-271.576 -298.818)" fill="#fff"/>
    <path id="Path_77" data-name="Path 77" d="M588.653,321.838c-.119.077-.263.237-.35.21a.519.519,0,0,1-.309-.33.252.252,0,0,1,.326-.3c.13.031.234.172.35.264l-.018.152" transform="translate(-546.259 -298.603)" fill="#fff"/>
    <path id="Path_78" data-name="Path 78" d="M604.04,322.031c-.122.085-.263.254-.363.233a.483.483,0,0,1-.3-.328c-.015-.084.176-.276.29-.289s.248.136.373.213q0,.085,0,.171" transform="translate(-560.553 -298.819)" fill="#fff"/>
    <path id="Path_79" data-name="Path 79" d="M308.208,322.051c-.126.08-.273.243-.371.218a.488.488,0,0,1-.29-.34c-.012-.083.187-.27.3-.277s.243.146.366.23q0,.085,0,.17" transform="translate(-285.72 -298.824)" fill="#fff"/>
    <path id="Path_80" data-name="Path 80" d="M658.017,426.863a1.89,1.89,0,0,1-.278-.45c-.045-.214.094-.324.3-.324a.272.272,0,0,1,.3.336c-.024.124-.162.226-.327.438" transform="translate(-611.052 -395.849)" fill="#fff"/>
  </g>
</svg>
