<svg id="Group_25" data-name="Group 25" xmlns="http://www.w3.org/2000/svg" xmlns:xlink="http://www.w3.org/1999/xlink" width="95.24" height="18.948" viewBox="0 0 95.24 18.948">
  <defs>
    <clipPath id="clip-path">
      <rect id="Rectangle_19" data-name="Rectangle 19" width="95.24" height="18.948" fill="#fff"/>
    </clipPath>
  </defs>
  <g id="Group_24" data-name="Group 24" clip-path="url(#clip-path)">
    <path id="Path_108" data-name="Path 108" d="M150.205,18.959a13.836,13.836,0,0,0,.494-1.734c.326-2.122.608-4.25.9-6.377q.531-3.9,1.048-7.8c.115-.861.244-1.721.331-2.584.033-.328.136-.424.475-.449a.951.951,0,0,1,1.055.62c2.394,4.614,4.821,9.211,7.24,13.812.051.1.115.187.2.332.641-1.219,1.258-2.392,1.875-3.567Q166.6,5.923,169.38.63c.35-.666.347-.668,1.174-.544.208,1.495.417,3,.626,4.506.346,2.5.688,5,1.041,7.5.236,1.671.456,3.345.745,5.006a13.743,13.743,0,0,0,.594,1.864H169.5a31.014,31.014,0,0,0,.016-3.331c-.2-2.087-.529-4.163-.808-6.243-.108-.8-.227-1.607-.34-2.41l-.105-.025-6.481,12.009H160.6c-.069-.111-.146-.217-.207-.333q-2.5-4.766-5-9.533l-1.429-2.722-.124.019c-.359,4.2-1.41,8.322-1.351,12.569Z" transform="translate(-135.319 -0.011)" fill="#fff"/>
    <path id="Path_109" data-name="Path 109" d="M792.79,19.081a12.525,12.525,0,0,0,.495-4.9q.009-5.027,0-10.054A8.123,8.123,0,0,0,792.74.155h1.554c1.649,0,3.3-.027,4.946.017A10.817,10.817,0,0,1,803.377,1a4.336,4.336,0,0,1,2.8,4.094,4.264,4.264,0,0,1-2.559,4.293,23.779,23.779,0,0,1-3.008.989c.244.226.57.515.88.82q3.847,3.763,7.686,7.533a2.033,2.033,0,0,1,.237.357h-3.76a78.579,78.579,0,0,1-7.339-7.56,6.315,6.315,0,0,0-1.051-.957,3.632,3.632,0,0,0-.841-.331c0,1.792.02,3.464-.006,5.135a9.047,9.047,0,0,0,.529,3.713Zm3.633-9.808c1.05,0,2.033.019,3.015-.009a4.142,4.142,0,0,0,1.158-.2,3.514,3.514,0,0,0,2.388-3.286,3.8,3.8,0,0,0-2.277-3.846A9.8,9.8,0,0,0,796.8,1.26c-.366-.008-.382.2-.381.472q.008,3.322,0,6.644v.9" transform="translate(-714.175 -0.133)" fill="#fff"/>
    <path id="Path_110" data-name="Path 110" d="M393.842,18.947a30.934,30.934,0,0,0,1.57-2.714c2.376-5.22,4.71-10.459,7.049-15.7.151-.337.283-.578.733-.532a.563.563,0,0,1,.545.374q2.41,5.332,4.838,10.655c.712,1.566,1.421,3.134,2.138,4.7a8.824,8.824,0,0,0,1.967,2.864,2.293,2.293,0,0,1,.259.351h-4.156c-.989-2.191-1.983-4.38-2.961-6.577a.51.51,0,0,0-.547-.359c-1.843.013-3.687,0-5.53.019a.627.627,0,0,0-.471.289c-1,2.2-1.977,4.416-2.96,6.627Zm11.17-8.326L402.5,5.092l-2.462,5.529Z" transform="translate(-354.81 0.001)" fill="#fff"/>
    <path id="Path_111" data-name="Path 111" d="M592.547,19.044c.007-.048,0-.11.025-.143,1.5-1.9,2.221-4.194,3.212-6.346,1.845-4,3.624-8.039,5.418-12.066a.534.534,0,0,1,.583-.382.59.59,0,0,1,.641.378q3.409,7.55,6.843,15.089a9.717,9.717,0,0,0,2.237,3.27,1.088,1.088,0,0,1,.14.2H607.49c-.066-.131-.137-.261-.2-.395q-1.382-3.046-2.758-6.094c-.122-.271-.232-.454-.6-.45-1.83.022-3.661.017-5.492,0a.515.515,0,0,0-.552.365c-.723,1.654-1.465,3.3-2.194,4.95-.237.536-.454,1.08-.68,1.621h-2.474m8.626-13.85-2.449,5.5h4.951l-2.5-5.5" transform="translate(-533.823 -0.096)" fill="#fff"/>
    <path id="Path_112" data-name="Path 112" d="M.042,19.339c.033-.142.071-.283.1-.426a13.92,13.92,0,0,0,.382-2.264C.559,12.542.537,8.435.54,4.327A8.636,8.636,0,0,0,0,.434H13.243v1.9a4.924,4.924,0,0,0-.557-.207,7.808,7.808,0,0,0-1.628-.345c-2.341-.038-4.683-.017-7.025-.015-.113,0-.225.019-.369.032V9.075h8.476a11.875,11.875,0,0,1-.38,1.306c-.044.109-.318.174-.487.175-2.342.011-4.684.008-7.025.008H3.664c-.012.167-.031.31-.031.452,0,2.136.01,4.272-.011,6.407,0,.417.126.522.531.519,2.325-.018,4.652.033,6.975-.032a11.992,11.992,0,0,0,2.295-.491,3.22,3.22,0,0,0,.443-.182l-.266,2.1Z" transform="translate(0 -0.391)" fill="#fff"/>
  </g>
</svg>
